<svg width="1524" height="1540" viewBox="0 0 1524 1540" fill="none" xmlns="http://www.w3.org/2000/svg">
<path d="M696.069 205.734C702.469 199.418 711.994 190.545 717.352 185.883C722.709 181.371 728.067 177.461 729.258 177.461C730.448 177.461 737.89 182.725 745.629 189.191C753.368 195.658 763.488 205.434 768.102 210.697C772.716 215.961 780.008 225.135 784.175 230.85C788.491 236.715 795.337 248.145 799.356 256.416C803.225 264.687 807.988 276.869 809.923 283.486C812.75 293.262 813.346 299.127 813.346 334.77L822.275 330.709C827.187 328.453 836.563 324.994 843.111 322.889C849.66 320.783 860.971 317.926 868.412 316.422C877.788 314.467 888.504 313.715 904.131 313.715C918.418 313.715 931.515 314.768 940.594 316.422C948.333 317.775 956.072 319.279 957.709 319.881C960.537 320.633 960.686 321.535 959.644 336.725C959.048 345.447 956.816 360.035 954.732 369.209C952.649 378.383 949.523 390.113 947.886 395.527C946.1 400.941 941.636 411.318 937.766 418.687C934.045 425.906 926.753 437.486 921.841 444.254C916.781 450.871 908.745 459.895 903.982 463.955C899.22 468.166 889.843 474.633 883.295 478.693C876.746 482.603 866.031 487.717 859.482 490.123C852.934 492.529 841.177 495.537 833.438 496.891C825.698 498.244 815.132 499.297 809.923 499.297C804.863 499.297 797.123 498.545 792.956 497.643C788.64 496.59 781.348 494.334 776.883 492.379C772.418 490.424 768.548 488.92 768.4 489.07C768.4 489.371 765.125 493.582 761.405 498.545C757.535 503.508 754.559 507.869 754.559 508.32C754.559 508.771 759.023 509.674 764.53 510.275C770.186 510.877 780.604 512.531 788.045 513.734C795.486 515.088 806.053 517.795 822.275 524.111L1106.54 525.615L1118.44 529.676C1124.99 531.932 1133.62 535.992 1137.64 538.699C1141.66 541.406 1147.32 547.121 1150.29 551.182C1153.27 555.393 1157.14 562.912 1158.92 568.176C1161.45 574.793 1162.35 580.809 1162.35 589.23C1162.35 598.855 1161.6 602.314 1158.18 609.834C1155.65 615.248 1149.85 623.219 1143.6 629.836C1136.9 637.055 1130.5 642.318 1125.14 644.875C1117.1 648.785 1116.36 648.936 1058.17 648.936V847.451C1058.17 1021 1057.87 1047.17 1055.94 1054.99C1054.6 1059.95 1052.07 1067.47 1049.98 1071.53C1048.05 1075.74 1042.54 1082.81 1037.78 1087.47C1033.02 1092.14 1024.83 1098.15 1019.47 1101.01C1010.1 1105.97 1009.2 1106.12 992.684 1106.12C977.057 1106.12 974.973 1105.82 968.127 1102.21C963.96 1099.96 957.263 1095.6 953.244 1092.29C949.077 1089.13 943.57 1083.11 940.891 1078.9C938.213 1074.84 934.641 1067.17 933.004 1061.76C930.176 1052.28 930.176 1047.02 930.176 651.191H860.227L859.482 859.482L864.989 868.506C867.966 873.469 872.728 883.244 875.556 890.312C878.235 897.381 881.658 907.758 882.997 913.623C884.337 919.488 886.123 928.512 887.016 933.926C887.76 939.34 888.504 948.363 888.504 954.228C888.504 960.094 887.462 970.771 886.271 978.291C884.932 985.81 881.955 997.691 879.574 1005.06C877.044 1012.28 873.175 1022.05 870.793 1026.87C868.561 1031.53 861.566 1042.21 855.315 1050.48C849.213 1058.75 840.581 1068.98 836.265 1073.19C831.8 1077.4 822.871 1084.32 816.322 1088.68C809.774 1093.04 799.058 1099.21 792.51 1102.36C785.961 1105.52 772.567 1110.79 762.744 1114.24C752.921 1117.55 736.848 1122.21 709.166 1128.68L631.031 1128.38C585.639 1128.08 547.836 1127.33 540.99 1126.28C534.442 1125.37 525.066 1123.27 520.154 1121.76C515.243 1120.11 505.867 1116.05 499.318 1112.89C492.77 1109.73 483.096 1104.17 477.738 1100.56C472.38 1097.1 462.409 1088.38 455.414 1081.31C447.973 1073.64 439.341 1062.81 434.578 1054.84C430.113 1047.47 424.309 1036.04 421.63 1029.42C418.951 1022.81 415.528 1010.62 413.742 1002.35C410.766 987.766 410.766 982.803 410.766 827.148C410.766 692.248 411.063 665.027 412.998 654.199C414.189 647.131 416.868 636.002 419.1 629.385C421.184 622.768 425.351 612.691 428.179 606.826C431.155 600.961 436.066 592.539 439.043 588.027C442.168 583.516 450.503 574.041 457.795 566.973C465.088 559.904 475.059 551.482 479.971 548.174C484.882 545.016 492.323 540.805 496.342 539C500.509 537.195 507.206 534.639 511.225 533.285C515.392 531.781 523.28 529.676 529.084 528.322C536.525 526.668 553.343 525.615 589.359 524.863C637.58 523.66 639.514 523.51 648.891 519.9C654.248 517.795 663.625 515.088 669.727 513.885C675.829 512.531 686.693 511.178 706.934 509.824L704.404 505.312C702.915 502.756 699.343 497.943 691.307 488.318L680.889 492.68C670.917 496.74 669.28 496.891 647.402 496.891C628.055 496.891 622.399 496.439 612.428 493.582C605.879 491.627 594.866 487.416 587.871 484.107C580.876 480.799 570.905 474.934 565.547 471.023C560.338 467.113 551.855 459.744 546.943 454.781C542.032 449.668 534.888 440.945 531.019 435.23C527.298 429.516 521.494 419.439 518.22 412.822C514.945 406.205 510.48 395.377 508.397 388.76C506.313 382.143 503.486 371.615 502.295 365.449C501.104 359.283 499.467 347.102 498.723 338.379C497.532 324.393 497.681 322.438 499.765 320.783C501.253 319.73 508.397 317.775 515.689 316.271C525.661 314.316 535.93 313.564 555.873 313.715C579.537 313.715 584.448 314.166 598.289 317.625C606.921 319.881 618.232 323.189 623.59 325.295C628.948 327.25 636.836 330.709 641.152 332.965C645.319 335.07 649.188 336.725 649.337 336.574C649.635 336.273 649.188 330.408 648.444 323.34C647.254 313.865 647.402 307.248 648.742 297.773C649.784 290.705 652.314 279.576 654.397 272.959C656.481 266.342 660.202 256.867 662.583 251.904C665.113 246.941 671.066 237.166 675.829 230.098C680.591 223.029 689.67 212.201 696.069 205.734Z" fill="#163435"/>
<path d="M703.213 229.346L715.119 217.014V216.863C721.668 210.096 727.174 204.531 727.323 204.531C727.621 204.531 727.77 204.682 727.77 204.832C727.77 205.133 722.263 210.697 703.213 229.346Z" fill="#9AAEB2"/>
<path d="M721.37 323.49C721.072 327.25 720.775 324.844 720.775 318.227C720.775 311.609 721.072 308.602 721.37 311.459C721.668 314.316 721.668 319.73 721.37 323.49Z" fill="#9AAEB2"/>
<path d="M740.271 431.02C741.759 427.711 743.843 423.801 745.182 422.447V422.297C746.522 420.943 748.01 419.74 748.605 419.74C749.201 419.74 749.498 420.943 749.052 422.297C748.754 423.801 748.159 434.779 747.713 446.811C747.266 458.842 746.373 471.475 745.48 474.934C744.736 478.543 742.355 483.957 736.402 492.68L737.146 464.857C737.741 443.502 738.485 435.682 740.271 431.02Z" fill="#9AAEB2"/>
<path d="M603.498 548.775C600.224 549.076 595.461 549.076 593.08 548.775C590.699 548.475 593.229 548.174 599.033 548.174C604.838 548.174 606.772 548.475 603.498 548.775Z" fill="#9AAEB2"/>
<path d="M928.241 549.527C886.718 549.828 852.785 549.527 852.785 548.775C852.785 548.174 905.47 547.873 970.062 548.023C1034.5 548.324 1068.44 548.625 1045.52 548.775C1022.6 549.076 969.913 549.377 928.241 549.527Z" fill="#9AAEB2"/>
<path d="M861.268 623.67C860.971 626.979 860.673 625.023 860.673 619.158C860.673 613.293 860.971 610.736 861.268 613.143C861.566 615.549 861.566 620.361 861.268 623.67Z" fill="#9AAEB2"/>
<path d="M623.143 643.973C622.846 649.387 622.697 645.627 622.697 635.701C622.697 625.775 622.846 621.414 623.143 625.926C623.441 630.438 623.441 638.559 623.143 643.973Z" fill="#9AAEB2"/>
<path d="M904.131 626.979C900.857 627.279 896.094 627.279 893.713 626.979C891.332 626.678 893.862 626.377 899.666 626.377C905.47 626.377 907.405 626.678 904.131 626.979Z" fill="#9AAEB2"/>
<path d="M535.335 636.303C537.716 634.047 541.586 631.189 543.967 629.986C546.348 628.633 549.027 627.58 549.92 627.43C550.664 627.43 550.664 627.881 549.92 628.783C549.027 629.385 544.562 632.844 539.948 636.303C535.186 639.611 531.316 642.018 531.316 641.266C531.316 640.664 533.102 638.408 535.335 636.303Z" fill="#9AAEB2"/>
<path d="M736.699 654.049C732.979 654.35 726.281 654.35 721.816 654.049C717.352 653.748 720.328 653.598 728.514 653.598C736.699 653.598 740.42 653.748 736.699 654.049Z" fill="#9AAEB2"/>
<path d="M564.356 660.967C568.226 657.207 570.756 656.004 576.709 655.553C580.876 655.252 586.68 654.951 589.806 654.801C592.782 654.65 596.354 654.801 597.545 655.252C599.48 655.854 599.777 668.637 599.777 758.27C599.777 855.723 599.629 860.686 596.95 864.746C595.461 867.002 591.741 873.77 588.764 879.785C585.788 885.65 581.769 895.576 579.834 901.441C577.751 907.457 575.072 918.887 573.881 926.707C572.542 934.527 571.5 948.514 571.649 957.537C571.649 966.561 572.244 977.69 572.691 981.9C573.584 988.367 573.286 989.871 571.5 989.871C570.309 989.871 567.035 988.518 564.505 986.863C561.826 985.209 558.85 982.352 557.808 980.547C556.468 977.84 556.022 941.295 555.873 825.945C555.873 708.34 556.171 673.75 557.659 670.291C558.701 667.885 561.677 663.674 564.356 660.967Z" fill="#9AAEB2"/>
<path d="M529.382 711.648C529.233 719.469 528.935 713.754 528.935 698.865C528.935 683.977 529.233 677.51 529.382 684.578C529.679 691.647 529.679 703.828 529.382 711.648Z" fill="#9AAEB2"/>
<path d="M1033.91 941.746C1033.76 984.307 1033.61 949.867 1033.61 865.047C1033.61 780.227 1033.76 745.336 1033.91 787.596C1034.21 829.705 1034.21 899.186 1033.91 941.746Z" fill="#9AAEB2"/>
<path d="M432.643 850.008C432.495 859.482 432.197 852.414 432.197 834.217C432.197 816.02 432.495 808.199 432.643 816.922C432.941 825.645 432.941 840.533 432.643 850.008Z" fill="#9AAEB2"/>
<path d="M432.643 931.971C432.495 940.242 432.197 934.227 432.197 918.436C432.197 902.645 432.495 895.877 432.643 903.396C432.941 910.916 432.941 923.699 432.643 931.971Z" fill="#9AAEB2"/>
<path d="M621.804 1036.94C622.846 1037.7 623.59 1036.94 623.59 1035.44C623.59 1033.94 623.739 1033.03 624.036 1033.48C624.334 1033.94 625.971 1037.09 627.757 1040.7C629.543 1044.16 630.882 1047.02 630.734 1047.02C630.436 1047.02 627.906 1044.61 625.078 1041.61C622.25 1038.6 620.762 1036.49 621.804 1036.94Z" fill="#9AAEB2"/>
<path d="M629.543 1080.11C629.097 1080.11 624.483 1075.74 619.125 1070.33C613.767 1064.92 610.047 1060.55 610.642 1060.55C611.386 1060.55 616 1064.92 621.06 1070.33C626.12 1075.74 629.989 1080.11 629.543 1080.11Z" fill="#9AAEB2"/>
<path d="M625.078 1106.72C619.72 1107.03 611.386 1107.03 606.475 1106.72C601.563 1106.42 605.879 1106.27 616.148 1106.27C626.418 1106.27 630.436 1106.42 625.078 1106.72Z" fill="#9AAEB2"/>
<path fill-rule="evenodd" clip-rule="evenodd" d="M482.947 709.994C486.221 709.844 491.728 711.197 495.3 712.852C499.467 714.957 502.741 717.965 505.271 722.176C507.355 725.936 508.992 731.049 508.992 734.207C508.992 737.365 508.099 742.178 507.057 744.734C505.867 747.441 502.593 751.953 499.616 754.51C496.491 757.367 491.728 759.924 488.454 760.375C485.477 760.977 479.971 760.676 476.25 759.623C472.529 758.57 468.362 756.615 466.725 755.262C465.237 753.908 462.707 750.149 461.218 746.99C459.73 743.983 458.391 738.719 458.391 735.41C458.391 732.102 459.135 727.59 460.028 725.184C460.921 722.928 462.707 719.469 464.195 717.363C465.534 715.408 468.957 712.852 471.785 711.799C474.613 710.746 479.673 709.994 482.947 709.994ZM482.501 803.086C486.668 803.086 492.175 804.289 495.598 806.094C498.872 807.748 502.89 810.906 504.676 813.162C506.313 815.568 508.397 819.779 509.29 822.637C510.332 826.246 510.332 829.705 509.29 833.916C508.397 837.225 505.123 842.789 501.997 846.399C497.979 851.061 494.556 853.316 490.389 854.219C487.114 854.971 481.757 855.121 478.482 854.52C475.208 853.918 470.743 852.264 468.362 850.76C466.13 849.406 462.707 844.594 460.623 840.233C458.539 836.022 456.902 831.059 456.902 829.404C456.902 827.75 457.646 823.99 458.539 821.133C459.581 818.275 461.665 814.215 463.451 812.26C465.088 810.305 468.66 807.447 471.041 805.943C473.72 804.139 478.334 803.086 482.501 803.086ZM730.746 855.873C736.104 855.873 745.034 856.775 750.838 858.129C756.642 859.332 765.572 862.641 770.93 865.498C776.288 868.356 784.473 873.77 789.087 877.529C793.849 881.289 800.695 888.207 804.416 892.869C807.988 897.682 812.75 904.9 814.685 909.111C816.769 913.172 819.596 920.992 820.936 926.406C822.722 933.174 823.615 941.897 823.615 954.229C823.615 967.764 823.02 974.381 820.936 980.547C819.448 985.059 815.727 993.932 812.75 1000.1C809.179 1007.77 804.118 1014.99 796.826 1022.66C790.129 1029.72 782.092 1036.34 775.246 1040.4C767.06 1045.06 760.512 1047.47 750.094 1049.73C742.355 1051.38 731.937 1052.73 727.025 1052.73C722.114 1052.73 713.482 1051.68 707.678 1050.48C701.873 1049.13 693.539 1046.42 689.074 1044.31C684.609 1042.21 676.573 1036.94 671.215 1032.58C665.857 1028.22 658.713 1021 655.439 1016.49C652.016 1011.98 647.551 1004.91 645.468 1000.85C643.533 996.639 640.407 988.518 638.621 982.803C636.836 976.938 635.05 967.162 634.454 960.996C634.008 954.83 634.305 945.356 635.198 939.941C636.24 934.527 638.473 926.406 640.259 921.895C642.193 917.383 646.063 909.262 648.891 903.998C651.718 898.584 657.076 890.914 660.797 886.854C664.518 882.793 672.108 876.176 677.912 872.416C683.716 868.506 692.2 863.844 696.813 862.039C701.576 860.234 709.017 858.129 713.184 857.377C717.5 856.625 725.388 856.024 730.746 855.873ZM483.691 896.328C488.603 896.328 492.175 897.381 497.086 900.539C501.848 903.547 504.825 906.856 507.355 912.119C510.034 917.834 510.629 920.992 509.885 924.902C509.439 927.76 507.355 933.024 505.271 936.483C502.89 940.543 499.318 944.002 495.598 945.957C492.323 947.611 486.817 948.965 483.245 948.965C479.822 948.965 474.613 947.762 471.785 946.258C468.957 944.904 464.641 940.693 462.111 937.234C458.539 931.971 457.646 929.113 457.646 922.797C457.646 916.631 458.539 913.623 461.963 908.66C464.344 905.201 468.66 901.141 471.636 899.486C474.613 897.832 479.971 896.479 483.691 896.328ZM612.725 942.949C614.511 942.949 617.488 944.303 619.125 945.957C620.762 947.611 622.102 950.469 622.102 952.274C622.102 954.229 621.357 956.635 620.316 957.537C619.274 958.59 616.893 959.492 614.66 959.492C612.577 959.492 610.046 958.74 609.005 957.688C607.963 956.635 607.07 953.326 606.921 950.318C606.772 947.311 607.219 944.453 607.963 944.002C608.707 943.4 610.791 942.949 612.725 942.949ZM818.108 1016.64C818.257 1016.64 817.959 1017.54 817.513 1018.45C817.066 1019.5 814.239 1023.41 811.262 1027.02C808.286 1030.63 802.928 1035.74 799.207 1038.3C793.552 1042.21 794.445 1040.85 805.16 1029.88C812.155 1022.66 817.959 1016.79 818.108 1016.64Z" fill="#163435"/>
<path d="M693.241 243.633C697.855 237.467 707.231 226.488 714.077 219.27V219.119C721.072 211.9 727.174 206.035 727.621 206.035C728.067 206.035 732.086 209.645 736.402 214.006C740.718 218.217 744.141 222.277 744.141 222.879C744.141 223.631 741.908 223.48 739.229 222.729C736.699 221.977 733.723 221.826 732.979 222.428C732.086 222.879 730.3 225.736 728.811 228.594C727.472 231.451 721.072 238.971 714.821 245.137C705.594 254.461 702.469 258.822 697.26 269.951C693.837 277.32 689.521 289.201 687.735 296.27C685.502 305.293 684.609 313.564 684.609 324.393C684.609 336.574 685.502 342.891 688.479 353.719C690.711 361.389 693.986 370.863 695.92 374.773C697.855 378.834 699.195 382.293 698.748 382.744C698.302 383.195 695.623 380.639 692.646 377.029C689.818 373.57 685.056 366.652 682.377 361.689C679.698 356.727 675.829 347.553 674.043 341.387C671.215 332.363 670.62 326.648 670.62 313.564C670.62 300.33 671.364 294.314 674.638 283.486C676.721 276.117 679.847 266.492 681.633 262.432C683.419 258.221 688.628 249.799 693.241 243.633Z" fill="#FAFBFB"/>
<path d="M522.387 341.086C522.387 338.98 523.875 338.379 530.126 338.078C534.442 337.777 543.371 337.477 549.92 337.326C556.468 337.176 568.226 337.777 575.965 338.529C583.704 339.432 594.42 341.236 599.777 342.59C605.135 343.943 614.065 346.951 619.869 349.357C625.673 351.613 633.859 355.824 638.324 358.531C642.64 361.088 649.635 366.201 653.504 369.66C657.523 373.27 660.797 376.729 660.797 377.631C660.797 378.533 659.606 378.684 658.118 378.082C656.779 377.631 651.867 374.924 647.402 372.217C642.938 369.359 634.603 365.299 628.799 363.193C622.995 361.088 614.809 357.93 610.493 356.426C606.326 354.922 593.824 352.516 582.96 351.162C571.054 349.809 558.254 349.207 537.27 350.561V359.885C537.27 365.148 537.865 373.119 538.758 377.631C539.502 382.143 541.139 390.264 542.181 395.678C543.371 401.092 544.264 406.656 544.116 408.01C544.116 409.363 543.52 410.115 542.925 409.514C542.33 408.912 539.948 404.4 537.567 399.438C535.186 394.475 531.763 386.053 530.126 380.639C528.34 375.225 525.959 364.697 524.619 357.328C523.429 349.959 522.387 342.59 522.387 341.086Z" fill="#FAFBFB"/>
<path d="M857.25 341.988C862.608 340.785 874.663 339.281 884.039 338.529C893.415 337.928 907.852 337.777 916.037 338.229C924.223 338.529 931.962 339.432 933.152 340.184C934.938 341.086 934.343 341.688 930.92 343.041C928.39 343.943 923.776 345.297 920.502 346.049C917.228 346.65 908.149 347.703 900.41 348.305C892.671 348.906 878.83 350.26 869.9 351.463C856.506 353.268 850.85 354.771 839.391 360.035C831.652 363.645 821.085 369.51 816.173 373.27C811.113 376.879 803.97 383.947 800.398 388.91C796.677 393.873 791.319 402.295 788.343 407.709C785.515 413.123 780.604 425.605 777.627 435.531C774.65 445.457 771.079 454.932 769.888 456.586C767.804 459.293 767.655 458.09 768.4 443.803C768.995 431.922 770.186 424.854 773.311 415.229C775.99 407.408 780.752 397.783 785.515 390.414C789.98 383.797 795.933 375.826 798.909 372.668C802.035 369.51 808.434 364.246 813.346 361.088C818.257 357.779 827.931 352.666 834.926 349.809C841.921 346.801 851.892 343.342 857.25 341.988Z" fill="#FAFBFB"/>
<path d="M677.912 535.691C681.93 534.789 690.711 533.436 697.26 532.684C703.808 531.932 710.505 531.48 712.143 531.631C714.375 531.781 715.566 533.436 716.607 538.098C717.352 541.557 717.798 544.715 717.352 545.166C716.905 545.617 710.952 546.52 703.957 547.422C696.962 548.324 686.991 550.129 681.633 551.482C676.275 552.836 667.941 555.844 663.029 558.1C658.118 560.355 651.867 564.717 649.188 567.725C646.658 570.732 644.426 574.492 644.426 576.146C644.426 577.801 645.319 581.41 646.361 583.967C647.551 586.674 651.272 591.486 654.546 594.494C657.969 597.652 663.327 601.562 666.304 603.066C669.429 604.57 678.359 607.729 686.098 609.984C696.962 612.992 704.999 614.195 720.328 614.797C732.83 615.248 745.48 614.947 753.814 613.744C761.256 612.691 772.567 610.285 779.115 608.18C785.664 606.074 794.296 602.465 798.463 600.209C802.481 597.953 807.839 593.742 810.22 591.035C812.602 588.178 815.132 584.418 815.727 582.463C816.62 580.357 816.322 577.5 815.132 574.191C813.941 571.635 810.816 567.424 807.988 565.018C805.16 562.611 799.951 559.152 796.23 557.348C792.51 555.393 784.175 552.535 777.627 550.881C771.079 549.076 760.214 547.271 753.368 546.52C745.232 545.717 741.164 544.665 741.164 543.361C741.164 542.459 742.206 539.15 745.629 531.029L754.856 531.932C760.065 532.383 770.186 534.037 777.627 535.691C785.068 537.346 794.742 540.053 799.207 541.707C803.672 543.361 811.113 546.82 815.578 549.377C820.043 551.934 825.698 555.844 827.931 557.949C830.312 560.055 833.438 564.266 834.777 567.123C836.265 569.98 837.902 574.191 838.498 576.447C839.093 579.154 838.349 583.064 836.712 586.975C835.223 590.584 831.652 595.697 828.824 598.555C825.996 601.412 820.787 605.773 817.066 608.18C813.346 610.736 806.351 614.647 801.439 616.902C796.528 619.309 785.812 622.918 777.627 625.023C769.441 627.129 755.749 629.686 747.117 630.588C735.211 631.941 727.174 631.941 713.631 630.588C702.766 629.535 689.223 626.979 679.4 624.121C670.322 621.564 659.011 617.354 654.1 614.947C649.188 612.391 641.598 607.578 637.133 604.119C632.668 600.811 627.162 594.945 624.78 591.186C622.25 586.975 620.613 582.463 620.613 579.154C620.613 576.297 622.102 570.883 624.036 567.273C625.822 563.514 630.287 557.949 634.008 554.791C638.324 551.031 645.914 546.82 655.588 543.211C663.773 540.053 673.745 536.594 677.912 535.691Z" fill="#FAFBFB"/>
<path d="M524.619 552.836C529.53 551.332 538.907 549.678 545.455 548.926C552.004 548.324 568.375 548.174 581.918 548.625C595.461 549.076 606.623 549.527 606.772 549.527C606.921 549.678 604.986 554.189 602.307 559.604C597.843 569.078 597.694 569.98 597.991 586.674C598.14 596.148 597.991 606.826 597.545 610.285C596.95 616 596.354 616.752 593.08 616.752C590.996 616.752 582.662 618.105 574.477 619.76C566.291 621.414 555.724 624.271 550.962 626.076C546.348 627.881 540.097 631.49 537.27 633.896C534.442 636.453 528.191 642.469 523.429 647.131C518.815 651.943 514.201 655.854 513.457 655.854C512.564 655.854 510.183 658.109 504.23 665.629L505.271 720.371L501.551 716.912C499.467 714.957 496.193 712.551 494.109 711.498C492.026 710.445 486.966 709.693 482.947 709.693C478.78 709.693 473.422 710.746 471.041 711.949C468.66 713.152 465.534 715.408 464.195 716.912C462.855 718.566 460.623 722.025 459.284 724.582C457.944 727.289 456.902 732.102 456.902 735.109C456.902 738.418 458.688 743.982 461.07 748.344C463.748 753.307 466.874 756.766 470.297 758.42C473.422 760.074 478.929 761.127 483.691 761.127C489.347 761.127 493.514 760.225 497.086 757.969C499.914 756.164 502.741 753.908 503.337 753.006C503.932 752.104 504.676 764.887 505.271 811.658L499.318 807.447C495.895 804.891 490.537 802.785 486.668 802.334C482.352 801.732 477.887 802.184 474.018 803.838C470.743 805.041 466.279 808.049 464.046 810.305C461.814 812.561 458.986 817.223 457.646 820.531C456.009 824.291 455.563 828.502 456.009 831.811C456.605 834.668 458.986 840.232 461.367 844.143C464.641 849.557 467.469 851.963 472.083 853.768C476.101 855.271 481.608 856.023 486.817 855.572C492.175 855.271 496.342 854.219 497.979 852.564C499.616 851.061 501.253 849.857 501.848 849.857C502.593 849.857 503.039 861.738 503.039 876.176C503.039 890.613 502.741 902.494 502.295 902.494C501.848 902.494 499.318 901.141 496.639 899.486C493.216 897.381 489.347 896.479 482.947 896.479C475.655 896.479 472.976 897.23 468.362 900.689C464.939 903.096 461.07 907.908 458.986 912.27C457.051 916.33 455.414 921.143 455.414 922.797C455.414 924.451 457.051 929.113 458.837 933.324C460.772 937.385 464.344 942.348 466.725 944.303C469.106 946.258 473.72 948.514 476.994 949.416C481.608 950.77 484.584 950.77 489.645 949.266C493.365 948.213 498.277 945.656 500.658 943.4C503.535 940.693 504.329 940.342 503.039 942.348C501.402 944.904 501.7 946.408 504.676 952.574C506.611 956.484 509.141 959.643 510.034 959.643C511.076 959.643 512.266 960.695 512.713 961.898C513.159 963.102 515.838 964.906 518.666 965.658C521.494 966.41 523.875 967.914 523.875 968.666C523.875 969.418 524.768 970.17 525.661 970.17C526.703 970.17 529.679 974.832 532.358 980.397C534.888 985.961 539.948 993.781 543.52 997.842C546.943 1001.9 553.194 1007.17 557.361 1009.42C562.868 1012.73 566.738 1013.78 580.43 1013.78L584.448 1022.36C586.68 1027.17 591.741 1035.74 595.61 1041.61C599.629 1047.47 608.707 1058.9 616 1067.17C625.673 1078.3 628.948 1082.96 628.204 1084.92C627.311 1087.63 624.929 1087.78 527.596 1086.57L512.713 1081.61C504.527 1079.05 497.532 1077.25 497.086 1077.55C496.639 1078 497.979 1079.05 500.062 1079.8C503.337 1081.01 503.188 1081.16 498.128 1080.86C495.151 1080.86 492.621 1079.96 492.621 1079.2C492.621 1078.45 492.175 1078.15 491.579 1078.75C490.835 1079.35 486.519 1076.95 481.608 1073.49C476.845 1070.03 468.362 1061.46 462.707 1054.39C457.051 1047.32 450.056 1036.94 447.229 1031.08C444.401 1025.21 440.234 1013.78 433.834 990.473V825.043C433.834 670.742 433.983 658.861 436.513 647.582C438.001 640.965 442.466 628.783 446.484 620.512C451.396 610.586 457.498 601.262 464.344 592.99C469.999 586.223 478.929 577.5 483.989 573.74C489.198 569.98 498.425 564.266 504.527 561.107C510.629 557.949 519.708 554.189 524.619 552.836Z" fill="#FAFBFB"/>
<path d="M860.971 563.363C860.375 560.957 858.441 556.596 856.804 553.889L853.827 549.076H979.884C1100.44 549.076 1106.09 549.227 1113.53 551.934C1119.04 554.039 1123.35 557.047 1127.82 562.16C1131.39 566.221 1135.26 572.688 1136.6 576.898C1138.83 583.967 1138.83 584.568 1136.3 585.922C1134.96 586.674 1129.75 589.982 1124.99 592.99C1120.08 596.148 1113.09 599.457 1109.07 600.359C1104.75 601.262 1085.11 601.713 1057.42 601.412C1032.87 601.111 1011.44 601.412 1009.8 602.014C1007.12 603.066 1006.67 605.021 1005.63 621.564C1005.04 631.791 1004.59 729.996 1004.59 840.082C1004.59 1012.58 1004.29 1041.15 1002.36 1047.92C1001.17 1052.28 998.488 1057.4 996.553 1059.2C994.47 1061.16 991.642 1065.07 990.005 1067.92C988.368 1070.93 985.689 1073.49 983.605 1074.09C981.224 1074.54 980.033 1075.89 980.033 1078.15C980.033 1080.71 979.438 1081.16 977.057 1080.41C975.42 1079.96 971.996 1078 969.615 1076.2C967.234 1074.24 963.364 1070.18 961.132 1067.02C958.9 1063.71 956.37 1059.35 955.625 1057.1C954.435 1054.24 953.988 985.66 953.988 626.527L923.776 626.227C901.154 625.926 892.969 625.324 890.736 623.82C889.099 622.617 882.551 620.963 876.151 620.061C869.9 619.008 863.947 618.557 863.203 619.008C862.31 619.459 861.715 610.736 861.864 593.742C862.012 579.605 861.566 565.77 860.971 563.363Z" fill="#FAFBFB"/>
<path d="M623.59 833.164L623.887 726.988L624.185 620.812L630.287 626.076C633.561 628.934 639.961 633.145 644.426 635.551C648.891 637.807 658.118 641.566 664.815 643.973C671.661 646.379 683.419 649.387 690.86 650.891C700.385 652.695 712.143 653.447 728.514 653.447C743.992 653.447 756.94 652.545 765.721 650.891C773.013 649.537 780.306 648.033 781.645 647.582C784.027 646.83 784.324 648.785 785.217 668.937C785.812 681.119 785.812 697.512 785.217 705.332C784.771 713.303 784.324 737.516 784.324 759.172C784.324 793.311 784.027 798.574 782.092 798.574C780.901 798.574 774.65 797.221 768.251 795.566C762 793.912 750.391 791.957 742.652 791.205C734.169 790.453 723.602 790.453 716.607 791.205C710.059 791.957 699.343 794.062 692.795 795.717C686.246 797.521 676.573 800.68 671.215 802.936C665.857 805.191 655.141 811.057 647.402 816.02C639.663 820.832 631.031 826.848 623.59 833.164Z" fill="#FAFBFB"/>
<path d="M691.307 819.779C697.111 817.975 705.148 816.02 709.166 815.268C713.333 814.516 720.03 813.914 724.049 813.914C728.216 813.764 737.89 814.666 745.629 815.869C753.368 817.072 763.786 819.479 768.697 821.133C773.609 822.938 781.943 826.697 787.301 829.555C792.659 832.412 798.016 835.57 799.356 836.623C800.546 837.676 802.035 839.631 802.63 841.135C803.523 843.391 803.077 843.541 799.654 842.639C797.421 842.188 791.766 839.932 787.301 837.676C782.836 835.42 771.376 831.811 762 829.555C747.117 825.795 742.95 825.494 729.258 826.096C718.691 826.697 709.315 828.201 700.236 830.908C692.944 833.164 682.526 837.225 677.168 840.082C671.81 842.939 662.136 850.158 655.588 856.174C649.039 862.189 641.003 870.16 637.58 873.77C634.157 877.529 628.352 885.199 624.632 890.764C620.762 896.328 616.297 905.352 614.511 911.066C612.874 916.631 610.493 926.256 609.154 932.422C607.963 938.738 606.623 948.814 606.177 954.98C605.879 961.297 606.326 972.727 607.219 980.547C608.112 988.969 610.791 1000.25 613.47 1007.62C616 1014.69 618.232 1023.11 618.381 1026.42C618.827 1032.43 618.827 1032.43 616.446 1028.82C615.107 1026.87 611.981 1021.75 609.6 1017.54C607.368 1013.33 603.796 1005.66 601.861 1000.55C599.926 995.285 597.545 986.562 596.801 980.998C595.908 975.434 595.164 962.049 595.164 951.221C595.312 936.934 596.057 928.662 598.14 920.391C599.777 914.225 603.796 902.795 607.219 894.824C610.642 887.004 616.148 876.928 619.571 872.266C622.995 867.754 629.394 860.084 634.008 855.271C638.473 850.309 646.212 843.541 651.123 839.932C656.034 836.473 664.815 831.209 670.471 828.352C676.275 825.344 685.651 821.584 691.307 819.779Z" fill="#FAFBFB"/>
<path d="M823.02 932.422C822.127 927.91 821.234 922.947 820.787 921.443C820.341 919.789 820.638 918.887 821.531 919.488C822.424 919.939 824.359 922.947 825.847 926.105C827.336 929.113 829.866 937.084 831.205 943.701C832.991 951.822 833.586 958.74 832.991 964.756C832.545 969.719 830.759 978.592 829.27 984.307C827.782 990.172 824.21 999.496 821.382 1005.21C818.555 1010.93 813.346 1019.2 809.625 1023.56C805.904 1027.92 798.612 1034.99 793.254 1039.05C787.896 1043.11 777.627 1049.28 770.186 1052.58C761.107 1056.64 752.773 1059.05 744.141 1060.25C735.062 1061.46 728.811 1061.61 721.816 1060.4C716.459 1059.65 708.124 1057.4 703.213 1055.74C698.302 1053.94 692.944 1051.53 691.307 1050.48C688.479 1048.37 688.479 1048.22 692.051 1048.22C694.134 1048.22 699.492 1049.28 703.957 1050.48C708.571 1051.83 718.542 1052.73 727.025 1052.73C735.211 1052.73 746.224 1051.83 751.582 1050.78C756.94 1049.58 766.911 1045.67 773.757 1042.06C783.431 1036.94 788.789 1032.88 796.826 1024.16C804.118 1016.34 809.327 1008.82 813.643 1000.1C817.066 993.029 820.936 983.254 822.275 978.291C823.466 973.328 824.508 962.951 824.508 954.98C824.508 947.16 823.913 937.084 823.02 932.422Z" fill="#FAFBFB"/>
<path d="M692.051 571.484C698.153 570.582 704.255 569.529 705.445 569.229C706.636 568.928 710.357 568.928 713.631 568.928C719.286 569.229 719.584 569.529 720.03 574.492C720.328 577.35 721.37 580.658 722.263 581.711C723.305 582.914 727.323 583.666 739.676 583.516V567.725L751.88 568.777C758.726 569.379 770.186 571.334 777.627 572.988C785.068 574.793 792.063 577.199 793.254 578.252C795.189 580.207 794.593 580.809 788.045 583.516C784.027 585.32 773.162 588.779 764.232 591.336C748.754 595.697 746.82 595.998 729.258 595.096C718.989 594.645 704.106 592.84 696.069 591.186C688.181 589.381 679.103 586.824 676.126 585.32C673.001 583.967 670.471 581.711 670.471 580.508C670.471 579.305 672.852 577.199 675.68 575.846C678.507 574.492 685.949 572.537 692.051 571.484Z" fill="#6FA7A9"/>
<path d="M744.141 223.029C744.141 222.277 742.652 220.172 740.866 218.066C739.081 215.961 740.866 217.465 744.885 221.375C749.052 225.285 751.88 228.895 751.136 229.346C750.54 229.797 747.266 228.293 743.694 226.187C740.271 224.082 738.932 222.728 740.718 223.18C742.652 223.631 744.141 223.631 744.141 223.029Z" fill="#C0D7D7"/>
<path d="M564.803 349.959C561.529 350.26 556.766 350.26 554.385 349.959C552.004 349.658 554.534 349.357 560.338 349.357C566.142 349.357 568.077 349.658 564.803 349.959Z" fill="#C0D7D7"/>
<path d="M800.249 388.76C801.886 386.354 805.458 381.992 808.286 379.285C810.964 376.728 813.495 374.473 813.792 374.473C814.09 374.473 811.262 378.082 807.393 382.293C803.374 386.654 799.505 390.865 798.761 391.768C797.868 392.67 798.612 391.166 800.249 388.76Z" fill="#C0D7D7"/>
<path d="M664.518 384.248C662.88 383.797 659.457 381.691 657.076 379.736C652.909 376.127 652.909 375.977 656.332 377.33C658.416 378.082 660.648 378.533 661.392 378.383C662.136 378.383 663.773 379.736 665.113 381.691C667.345 384.85 667.345 385 664.518 384.248Z" fill="#C0D7D7"/>
<path d="M543.223 400.34C542.479 397.332 541.734 393.723 541.883 392.52C541.883 391.316 543.223 394.324 544.711 399.287C546.348 404.25 547.985 410.115 548.432 412.371C548.878 414.777 548.58 416.582 547.688 416.582C546.795 416.582 545.157 415.078 543.967 413.123C542.578 410.917 542.33 409.163 543.223 407.859C544.264 406.656 544.116 404.1 543.223 400.34Z" fill="#C0D7D7"/>
<path d="M1125.44 592.689C1130.65 589.381 1135.56 585.771 1136.6 584.568C1137.94 582.764 1138.54 583.816 1139.13 590.133C1139.87 595.998 1139.43 599.156 1137.2 603.818C1135.56 607.127 1131.84 612.09 1129.01 614.646C1126.03 617.354 1120.82 621.113 1117.25 622.918C1111.3 626.227 1109.51 626.377 1034.65 626.377L1033.91 635.4C1033.46 640.363 1033.16 736.914 1032.87 1055.74L1029.44 1062.81C1027.66 1066.57 1023.49 1072.13 1020.22 1074.84C1016.94 1077.7 1010.84 1080.86 1006.82 1082.21C1002.66 1083.41 995.958 1084.32 991.939 1084.17C987.772 1084.17 983.456 1083.71 982.266 1083.11C980.926 1082.51 979.884 1080.41 980.033 1078.3C980.033 1075.74 981.075 1074.39 983.605 1073.79C985.689 1073.34 988.368 1070.78 990.005 1067.77C991.642 1064.92 994.47 1061.01 996.553 1059.05C998.488 1057.25 1001.17 1052.13 1002.36 1047.92C1004.29 1041 1004.59 1011.53 1004.74 835.42C1004.89 722.928 1005.48 624.422 1006.08 616.602C1006.52 608.781 1007.12 603.217 1007.27 604.119C1007.42 605.172 1008.91 606.074 1010.54 606.074C1012.18 606.074 1013.82 605.473 1014.26 604.57C1014.71 603.668 1013.52 602.916 1011.58 602.916C1009.65 602.766 1010.84 602.164 1014.26 601.412C1017.54 600.66 1038.67 600.51 1061.14 600.961C1088.53 601.562 1104.45 601.262 1109.07 600.209C1113.09 599.307 1120.38 595.848 1125.44 592.689Z" fill="#C0D7D7"/>
<path d="M592.634 616.602C596.057 616.602 596.801 616 596.801 612.842C596.801 610.736 597.098 609.082 597.545 609.082C597.991 609.082 598.289 613.443 598.289 628.633L591.889 629.535C588.466 629.986 580.579 631.49 574.477 632.693C568.375 633.896 560.338 636.453 556.617 638.408C552.897 640.363 547.241 644.273 543.967 647.131C540.693 649.988 536.079 655.853 529.233 668.486L529.382 821.133C529.382 905.051 529.233 972.877 528.935 971.824C528.638 970.922 527.298 970.019 526.107 970.019C524.917 970.019 523.875 969.268 523.875 968.516C523.875 967.764 521.494 966.26 518.666 965.508C515.838 964.756 513.159 962.951 512.713 961.748C512.266 960.545 511.076 959.492 510.034 959.492C509.141 959.492 506.76 956.484 501.551 945.957L506.016 936.482C508.397 931.369 510.48 924.902 510.48 922.195C510.48 919.639 509.439 915.127 508.099 912.42C506.76 909.863 505.123 906.855 504.379 906.103C503.634 905.352 503.039 891.365 503.039 875.273C503.039 859.182 503.634 845.195 504.379 844.443C504.974 843.691 506.76 840.684 508.099 837.977C509.439 835.42 510.48 831.059 510.48 828.652C510.48 826.246 509.736 822.336 508.843 819.93C508.099 817.674 505.569 813.914 503.337 811.357C501.104 808.951 500.658 808.049 502.295 809.402C505.272 811.959 505.272 811.809 504.825 781.129C504.527 756.314 504.974 749.547 506.76 745.937C507.95 743.531 508.992 738.268 508.992 734.207C508.992 730.297 508.099 725.785 507.057 724.131C505.718 722.025 504.974 713.152 504.23 665.478L508.099 660.516C510.183 657.959 512.564 655.703 513.457 655.703C514.201 655.703 518.071 652.545 521.791 648.484C525.512 644.574 529.382 641.416 530.275 641.416C531.316 641.416 536.228 638.408 541.288 634.648C546.497 630.889 550.366 627.58 549.92 627.129C549.622 626.678 552.152 625.475 555.575 624.271C558.998 623.219 567.779 620.963 575.221 619.459C582.513 617.955 590.401 616.602 592.634 616.602Z" fill="#C0D7D7"/>
<path d="M861.417 623.971C861.268 621.865 861.864 619.609 862.608 619.008C863.352 618.406 865.882 618.256 868.412 618.707C870.793 619.158 876.151 619.91 880.318 620.512C884.337 621.113 889.099 622.467 890.736 623.52C893.564 625.475 893.564 625.475 889.992 626.227C887.909 626.678 880.765 627.279 873.919 627.43C861.715 627.881 861.715 627.881 861.417 623.971Z" fill="#C0D7D7"/>
<path d="M816.322 634.799C822.871 631.49 829.866 627.129 831.8 625.023C833.735 622.918 835.67 621.113 835.968 621.113C836.265 621.113 836.414 669.389 836.414 728.191C836.265 826.096 836.116 835.119 834.033 831.66C832.693 829.555 827.931 825.043 823.317 821.734C818.555 818.275 810.518 813.012 805.16 810.004C799.802 807.146 791.766 803.387 787.301 801.732C782.836 800.078 780.306 798.725 781.645 798.574C784.175 798.574 784.324 795.416 784.622 757.518C784.771 735.109 784.92 700.82 785.068 646.229L794.742 643.521C800.1 642.018 809.774 638.107 816.322 634.799Z" fill="#C0D7D7"/>
<path d="M953.542 942.197C953.393 1000.1 953.244 953.025 953.244 837.676C953.244 722.326 953.393 674.953 953.542 732.402C953.839 789.852 953.839 884.297 953.542 942.197Z" fill="#C0D7D7"/>
<path d="M802.63 840.984C802.035 839.631 800.547 837.525 799.356 836.473C797.272 834.818 797.421 834.668 799.951 835.871C801.588 836.773 806.5 840.684 810.964 844.594C815.28 848.654 819.448 853.166 820.192 854.519C821.382 856.926 821.085 857.076 818.108 855.572C816.322 854.67 812.75 852.264 810.369 850.459C807.839 848.654 803.821 845.947 801.439 844.594C798.016 842.639 797.868 842.338 800.249 842.939C803.077 843.541 803.523 843.24 802.63 840.984Z" fill="#C0D7D7"/>
<path d="M619.125 1031.68C618.976 1030.48 618.827 1027.77 618.976 1025.66C618.976 1023.56 619.274 1022.21 619.72 1022.66C620.018 1023.11 621.357 1027.17 622.697 1031.68C625.078 1039.95 625.078 1039.95 622.25 1036.94C620.613 1035.29 619.274 1032.88 619.125 1031.68Z" fill="#C0D7D7"/>
<path d="M691.307 1051.53C689.67 1050.63 686.991 1048.52 685.354 1046.87C683.716 1045.06 682.972 1043.71 683.865 1043.71C684.609 1043.86 687.735 1044.91 690.563 1045.97C695.176 1047.77 695.325 1048.07 692.051 1048.07C688.33 1048.22 688.33 1048.22 694.283 1052.88L691.307 1051.53Z" fill="#C0D7D7"/>
<path d="M492.175 1082.66C487.561 1079.35 483.394 1076.04 483.096 1074.99C482.65 1073.94 484.138 1074.69 486.37 1076.5C488.603 1078.3 490.984 1079.2 491.579 1078.6C492.175 1078 492.621 1078.3 492.621 1079.05C492.621 1079.8 495.151 1080.71 498.128 1080.71C503.188 1081.01 503.337 1080.86 500.063 1079.65C497.979 1078.9 496.639 1077.85 497.086 1077.4C497.532 1077.1 504.527 1078.9 527.596 1086.42L577.751 1086.87C624.632 1087.32 628.055 1087.17 628.501 1084.62C628.799 1083.26 627.311 1080.11 625.227 1077.7C622.647 1074.79 624.582 1075.84 631.031 1080.86C636.389 1084.92 644.723 1090.78 649.635 1093.79C654.546 1096.65 660.946 1100.11 668.982 1103.57L659.309 1104.47C653.951 1104.92 631.18 1105.67 608.707 1106.12C584.299 1106.57 562.422 1106.27 554.385 1105.37C546.943 1104.47 535.335 1102.06 528.34 1099.96C521.345 1097.7 512.266 1094.24 508.248 1092.29C504.081 1090.18 496.937 1085.82 492.175 1082.66Z" fill="#C0D7D7"/>
<path d="M728.96 231.15C728.811 230.549 729.853 228.293 731.341 226.338C732.83 224.232 734.467 222.578 734.913 222.578C735.509 222.578 738.932 224.533 742.652 226.789C746.373 229.195 750.838 231.602 752.773 232.053C754.559 232.654 757.386 234.609 759.172 236.414C760.809 238.369 764.232 243.783 766.614 248.445C768.995 253.258 770.483 257.168 769.888 257.168C769.144 257.168 769.59 262.432 770.632 268.898C771.823 275.215 772.716 287.848 772.716 297.021C772.716 306.195 771.972 318.377 771.079 324.092C770.037 329.807 767.507 338.68 765.125 343.643C762.893 348.605 757.684 356.727 753.517 361.689C749.35 366.652 745.034 372.668 741.313 379.736L741.015 370.713C740.866 365.75 740.569 343.342 740.569 321.084C740.42 298.826 739.825 278.975 739.229 277.02C738.634 275.215 736.848 273.41 735.211 272.959C733.574 272.508 730.895 272.508 729.258 272.959C727.472 273.41 725.686 275.666 724.942 278.523C724.198 281.23 723.007 288.6 722.412 294.766C721.816 300.932 721.668 326.799 721.965 352.365C722.263 377.781 722.114 398.535 721.519 398.535C720.775 398.535 717.054 396.73 712.887 394.324C708.868 392.068 705.445 389.812 705.445 389.061C705.445 388.459 702.766 383.797 699.641 378.684C695.623 372.367 692.2 363.645 689.074 352.666C686.098 341.838 684.609 332.664 684.609 326.348C684.609 320.934 685.354 312.211 686.247 306.797C687.139 301.383 689.223 292.961 690.86 287.998C692.646 283.035 696.516 273.861 699.641 267.695C703.362 260.176 708.422 253.408 714.375 247.393C719.434 242.431 724.791 237.018 726.429 235.362L726.43 235.361C728.067 233.707 729.109 231.752 728.96 231.15Z" fill="#65D03B"/>
<path d="M884.783 350.41C895.499 349.508 906.215 348.605 908.596 348.305C911.126 348.004 915.293 347.703 917.972 347.553C920.948 347.553 922.734 348.154 922.734 349.207C922.734 350.26 921.097 356.275 919.163 362.441C917.228 368.607 913.507 378.984 910.977 385.301C908.447 391.768 904.28 400.641 901.601 404.852C899.071 409.213 894.904 415.529 892.373 418.687C889.843 421.996 882.7 428.764 876.598 433.576C870.496 438.539 859.631 445.457 852.488 449.066C843.855 453.428 833.884 456.887 823.466 459.293C814.536 461.248 803.523 463.654 798.909 464.557C794.147 465.459 790.277 466.812 790.277 467.715C790.277 468.617 789.384 469.219 788.491 469.219C787.202 469.319 787.45 468.316 789.236 466.211C790.724 464.406 799.356 456.736 808.583 449.066C817.662 441.396 830.312 431.32 836.414 426.658C842.516 421.996 853.529 412.672 860.822 405.754C873.472 393.873 874.068 392.971 873.77 387.256C873.77 383.947 873.323 380.939 872.877 380.488C872.579 380.037 869.156 381.391 865.436 383.496C861.715 385.602 848.172 395.076 835.521 404.551C822.722 414.025 803.821 428.764 793.552 437.035C783.134 445.457 774.502 452.225 774.204 452.074C774.055 452.074 775.543 445.457 777.776 437.637C779.859 429.816 783.58 419.289 785.961 414.326C788.343 409.363 793.403 400.641 797.421 394.775C801.439 388.91 808.583 380.939 813.495 377.029C818.257 372.969 827.633 366.953 834.182 363.795C840.73 360.486 850.404 356.576 855.762 354.922C861.12 353.418 874.216 351.312 884.783 350.41Z" fill="#65D03B"/>
<path d="M538.46 369.209C537.567 361.84 537.418 354.32 538.014 352.816C539.055 350.109 540.395 349.959 560.933 350.861C572.839 351.312 588.02 352.516 594.568 353.568C601.117 354.471 609.154 356.426 612.428 357.93C615.702 359.283 622.697 361.99 628.055 363.945C633.413 365.75 644.426 371.766 652.611 377.33C660.648 382.744 667.941 387.256 668.685 387.256C669.28 387.256 671.81 390.865 674.34 395.076L674.56 395.488C678.512 402.902 678.603 403.074 675.68 404.551C673.001 405.904 672.852 406.957 673.745 414.777C674.489 421.996 674.191 424.252 671.513 428.914C669.727 432.072 668.536 435.23 668.982 436.133C669.429 437.035 669.28 437.637 668.685 437.637C667.941 437.486 665.411 435.682 662.88 433.426C660.35 431.17 653.355 425.756 647.254 421.545C641.152 417.184 633.264 411.318 629.543 408.461C625.822 405.604 615.553 398.084 606.475 391.918C597.545 385.602 589.062 380.488 587.871 380.488C586.532 380.488 584.746 381.391 583.704 382.293C582.662 383.346 581.918 385.451 581.918 386.805C581.918 388.309 585.043 392.971 589.062 397.182C592.931 401.543 606.028 413.123 618.381 423.199C630.585 433.275 645.17 445.006 650.677 449.217C657.374 454.48 660.202 457.488 659.011 458.24C657.969 458.842 651.123 459.594 643.682 459.895C635.794 460.346 626.864 459.744 622.102 458.691C617.637 457.639 610.195 455.232 605.73 453.428C601.266 451.473 593.527 447.563 588.615 444.555C583.704 441.547 579.09 439.141 578.197 439.141C577.453 439.141 578.197 440.494 580.132 442.148C582.067 443.803 583.257 446.51 583.109 448.465C582.811 450.42 581.62 452.074 580.43 452.375C579.239 452.525 572.393 446.961 565.249 439.893C557.957 432.824 552.301 426.658 552.301 425.906C552.45 425.305 552.45 423.951 552.301 422.898C552.301 421.996 551.557 421.395 550.664 421.846C549.92 422.297 548.729 421.695 548.134 420.643C547.34 419.439 547.588 419.189 548.878 419.891C550.218 420.793 550.366 420.041 549.771 416.883C549.325 414.627 546.943 406.055 544.562 397.783C542.181 389.512 539.502 376.578 538.46 369.209Z" fill="#65D03B"/>
<path d="M689.818 835.57C695.623 833.314 704.255 830.457 709.166 829.404C714.97 828.051 724.644 827.449 736.699 827.75C749.945 828.201 758.726 829.254 767.209 831.51C773.757 833.314 785.068 837.676 792.51 841.285C799.951 844.744 809.476 850.309 813.792 853.617C818.108 856.775 822.127 859.031 822.722 858.43C823.317 857.828 822.722 856.174 821.531 854.971C820.341 853.617 819.745 852.564 820.489 852.715C821.085 852.715 826.145 859.031 831.949 866.701C841.921 880.086 842.218 880.838 841.623 887.756C841.177 891.967 841.474 894.824 842.367 894.824C843.26 894.824 843.409 896.027 842.814 897.531C841.921 899.486 842.07 899.787 843.855 898.584C845.493 897.381 845.79 897.682 845.046 900.088C844.6 901.742 845.493 910.615 846.981 919.639C848.469 928.662 849.66 938.738 849.809 941.896C849.809 947.311 849.809 947.461 845.79 945.807C843.409 945.055 839.688 944.453 837.307 944.754C833.289 945.205 832.842 944.754 829.866 935.43C828.08 930.016 825.103 922.646 823.02 919.037C820.936 915.428 818.852 912.57 818.257 912.57C817.513 912.721 815.578 910.164 813.792 906.855C811.857 903.547 807.541 897.08 804.118 892.568C800.547 888.057 793.849 881.289 789.236 877.529C784.473 873.77 775.543 868.055 769.441 864.896C762.447 861.287 754.112 858.43 747.117 857.227C740.42 856.023 731.193 855.723 724.049 856.174C717.5 856.775 707.827 858.43 702.469 860.084C697.111 861.738 688.479 865.648 683.121 868.807C677.912 871.965 669.131 878.883 663.773 884.297C658.118 889.861 651.867 898.283 648.891 903.848C646.063 909.262 642.193 917.383 640.259 921.895C638.473 926.406 636.24 934.527 635.198 939.941C634.305 945.355 634.008 954.83 634.454 960.996C635.05 967.162 636.836 977.088 638.621 982.803C640.407 988.668 643.533 996.789 645.468 1000.85C647.551 1005.06 652.016 1011.98 655.439 1016.49C658.713 1021 665.262 1027.62 669.727 1031.38C674.191 1035.14 679.996 1040.85 682.377 1044.16C684.907 1047.47 689.521 1051.53 692.795 1053.19C696.069 1054.84 703.808 1057.4 709.91 1058.9C716.31 1060.55 726.132 1061.76 732.979 1061.76C739.527 1061.76 748.903 1060.71 753.814 1059.35C758.726 1058 768.697 1053.94 776.139 1050.18C783.58 1046.57 790.873 1042.21 792.51 1040.85C794.147 1039.35 796.379 1038.3 797.421 1038.6C798.314 1038.9 802.779 1035.59 807.095 1031.38C811.56 1027.02 816.025 1021.75 817.066 1019.65C819.001 1016.04 818.852 1016.04 816.322 1018.14C813.643 1020.25 813.643 1020.25 816.025 1016.34C817.364 1013.93 818.852 1012.13 819.299 1012.13C819.745 1012.13 819.596 1013.03 819.001 1013.93C818.207 1015.24 818.456 1015.49 819.745 1014.69C820.638 1014.08 821.234 1013.18 820.787 1012.58C820.49 1011.83 822.127 1006.71 824.508 1000.85C826.889 994.984 829.568 987.014 830.461 982.803C831.503 978.742 832.545 974.23 832.991 973.027C833.438 971.824 833.884 965.357 833.735 946.709L834.926 956.484C835.372 961.898 835.968 964.906 836.116 963.252C836.265 961.146 838.2 959.643 841.921 958.289C845.046 957.236 848.469 956.033 849.511 955.582C850.702 955.131 851.297 957.086 851.297 962.199C851.297 966.109 849.064 977.389 846.386 987.314C843.707 997.24 839.539 1009.12 837.158 1013.63C834.777 1018.14 829.717 1025.96 825.847 1030.93C822.127 1035.89 813.941 1044.61 807.988 1050.33C800.1 1057.7 793.254 1062.36 783.58 1067.02C776.139 1070.63 767.06 1074.69 763.191 1075.89C759.172 1077.25 751.136 1079.05 745.331 1079.96C739.229 1081.01 727.323 1081.31 718.096 1080.86C709.166 1080.41 698.45 1079.05 694.283 1077.7C690.265 1076.35 678.507 1070.78 668.238 1065.07C657.969 1059.35 649.486 1055.29 649.337 1056.04C649.039 1056.64 650.528 1058.9 652.611 1061.01C654.695 1063.11 656.034 1065.52 655.588 1066.27C655.141 1067.02 652.016 1065.67 648.593 1063.26C645.021 1060.71 638.473 1055.14 633.859 1050.78C629.394 1046.57 627.013 1044.01 628.65 1045.21C631.627 1047.47 631.627 1047.32 629.245 1043.71C628.055 1041.61 623.292 1030.48 618.679 1018.9C613.321 1005.36 609.898 993.781 608.856 986.562C607.963 980.396 607.07 969.268 606.772 961.748C606.475 954.229 606.475 949.867 606.772 951.973C607.219 954.078 608.261 956.635 609.154 957.688C610.195 958.74 612.577 959.643 614.66 959.492C616.893 959.492 619.274 958.59 620.316 957.688C621.357 956.635 622.102 954.229 622.102 952.424C622.102 950.469 620.613 947.461 618.827 945.807C616.595 943.701 614.065 942.799 611.535 943.1C608.409 943.551 607.814 943.25 608.707 941.445C609.302 940.242 610.195 935.881 610.642 931.67C611.088 927.609 613.172 918.736 615.255 912.119C617.637 904.449 621.655 896.328 626.269 889.561C630.436 883.846 640.407 872.266 648.742 863.994C657.076 855.723 667.345 846.85 671.661 844.293C675.829 841.887 684.163 837.826 689.818 835.57Z" fill="#65D03B"/>
<path d="M467.469 628.482C469.553 625.625 473.571 622.166 476.399 620.812C479.227 619.309 483.989 618.105 486.966 618.105C490.091 618.105 494.854 619.008 497.384 620.061C500.062 621.113 504.23 624.723 506.76 628.031C509.29 631.49 511.373 636.453 511.82 639.912C512.118 643.221 511.522 648.184 510.332 651.041C509.141 653.898 506.016 658.109 503.337 660.516C500.807 662.771 495.746 665.479 492.175 666.531C487.114 667.885 484.584 667.734 479.375 666.08C475.208 664.727 471.19 662.02 468.213 658.26C464.195 653.146 463.6 651.342 463.6 643.07C463.6 635.25 464.195 632.844 467.469 628.482Z" fill="#163435"/>
<path d="M709.91 691.496C711.994 689.992 716.31 687.736 719.584 686.533C722.858 685.33 727.918 684.428 730.746 684.277C733.574 684.277 738.485 685.029 741.462 685.781C744.587 686.684 749.945 689.842 753.368 692.85C756.642 696.008 760.661 701.271 762.149 704.58C763.637 707.889 764.977 713.303 764.977 716.611C764.977 719.92 764.232 725.184 763.488 728.191C762.595 731.35 759.172 737.064 755.6 740.824C752.177 744.584 746.671 748.945 743.396 750.6C739.973 752.254 734.318 753.457 730.002 753.457C725.835 753.457 719.882 752.104 716.607 750.75C713.333 749.246 708.868 745.938 706.487 743.531C704.255 741.125 700.98 735.41 699.343 730.898C697.26 725.334 696.367 720.07 696.813 714.957C697.111 709.242 698.45 705.332 701.725 700.67C704.106 697.211 707.827 693 709.91 691.496Z" fill="#163435"/>
<path d="M469.702 993.932C472.083 991.676 475.952 989.27 478.482 988.367C480.864 987.465 484.436 986.713 486.221 986.713C488.156 986.562 492.175 987.615 495.151 988.969C498.277 990.172 502.444 992.729 504.23 994.533C506.164 996.338 508.695 999.646 509.885 1002.05C511.076 1004.31 511.969 1008.52 511.969 1011.38C511.969 1014.23 511.076 1018.9 509.885 1021.6C508.843 1024.16 506.016 1028.22 503.634 1030.48C501.253 1032.73 497.532 1035.29 495.151 1036.04C492.919 1036.94 488.305 1037.7 484.733 1037.7C480.566 1037.7 476.696 1036.64 473.273 1034.24C470.446 1032.43 466.576 1028.07 464.79 1024.91C462.855 1021.6 461.367 1016.34 461.367 1013.18C461.367 1010.17 462.26 1005.36 463.451 1002.65C464.493 1000.1 467.32 996.037 469.702 993.932Z" fill="#163435"/>
<path d="M545.009 1053.49C546.05 1051.38 548.283 1049.12 549.92 1048.37C551.557 1047.62 555.129 1046.87 557.659 1046.87C561.082 1046.72 563.91 1048.07 566.886 1050.93C569.268 1053.19 571.649 1056.64 572.244 1058.75C572.839 1060.86 572.839 1064.31 572.393 1066.72C571.798 1069.13 569.565 1071.98 566.589 1073.79C564.059 1075.44 559.296 1076.8 556.171 1076.8C551.855 1076.8 549.92 1075.89 546.943 1072.29C544.562 1069.43 543.223 1065.97 543.223 1062.51C543.223 1059.65 544.116 1055.59 545.009 1053.49Z" fill="#163435"/>
<path d="M653.355 688.488C653.355 686.984 654.695 684.428 656.332 682.773C657.969 681.119 659.755 679.766 660.35 679.766C661.095 679.766 662.732 680.969 664.22 682.473C665.708 683.826 666.899 686.533 666.75 688.338C666.75 690.293 665.708 692.85 664.369 694.053C663.178 695.256 661.243 696.309 660.35 696.309C659.309 696.309 657.374 695.105 655.886 693.602C654.397 692.248 653.207 689.842 653.355 688.488Z" fill="#6FA7A9"/>
<path d="M473.273 736.914C473.422 736.012 475.059 733.605 476.994 731.65C478.929 729.545 481.905 727.891 483.691 727.891C485.329 727.891 487.71 729.395 488.9 731.199C490.091 733.154 491.133 736.012 491.133 737.666C491.133 739.32 490.389 741.576 489.347 742.479C488.305 743.531 485.626 744.434 483.394 744.434C481.161 744.434 477.887 743.08 476.25 741.426C474.613 739.771 473.273 737.666 473.273 736.914Z" fill="#6FA7A9"/>
<path d="M473.125 831.059C472.976 826.998 473.869 825.193 477.143 822.787C479.375 820.982 482.054 819.629 483.245 819.629C484.287 819.629 486.817 821.283 488.9 823.389C490.984 825.494 492.621 828.652 492.621 830.457C492.621 832.412 491.43 835.119 489.942 836.623C488.603 838.127 485.626 839.33 483.394 839.18C481.013 839.18 477.887 838.428 476.25 837.676C474.166 836.623 473.273 834.518 473.125 831.059Z" fill="#6FA7A9"/>
<path d="M700.385 883.094C701.873 881.74 706.487 879.635 710.654 878.732C714.822 877.68 725.239 877.078 734.467 877.229C749.647 877.529 751.582 877.98 761.256 882.643C768.251 886.102 774.799 890.914 781.496 897.682C787.747 904.148 792.807 911.066 795.784 917.383C798.314 922.797 801.291 931.219 802.184 936.182C803.225 941.145 803.672 951.672 803.374 959.492C802.928 973.027 802.63 974.531 795.486 989.42C789.533 1001.9 786.259 1006.71 779.115 1013.48C774.204 1018.14 767.209 1023.41 763.488 1025.06C759.768 1026.87 751.88 1029.42 745.927 1030.78C740.122 1032.13 732.086 1033.18 728.067 1033.18C724.198 1033.18 717.054 1032.13 712.143 1030.78C707.231 1029.57 699.492 1026.72 695.027 1024.46C690.414 1022.05 682.377 1015.89 676.275 1009.87C667.494 1001.15 664.964 997.24 660.797 987.314C656.927 977.689 655.737 972.576 655.141 961.748C654.695 952.123 655.141 945.506 656.927 938.438C658.267 933.023 661.243 924.602 663.476 919.639C665.857 914.676 669.875 907.457 672.405 903.396C675.084 899.486 680.74 893.922 684.907 891.064C689.223 888.207 693.986 885.801 695.325 885.801C696.664 885.801 699.046 884.598 700.385 883.094Z" fill="#6FA7A9"/>
<path d="M473.125 925.203C472.976 922.947 474.018 919.488 475.506 917.684C476.994 915.578 479.524 914.375 482.203 914.375C485.329 914.375 487.561 915.578 489.645 918.436C491.43 920.842 492.77 924.15 492.621 925.955C492.621 927.91 491.133 930.467 489.198 931.67C487.412 932.873 484.138 933.926 481.757 933.926C479.524 933.926 476.696 932.873 475.506 931.67C474.315 930.467 473.273 927.609 473.125 925.203Z" fill="#6FA7A9"/>
<path d="M479.971 644.725C478.78 641.566 479.078 640.213 481.31 637.807C482.798 636.002 485.924 634.648 488.007 634.648C490.091 634.648 492.77 635.4 493.812 636.453C494.853 637.506 495.598 640.213 495.598 642.469C495.598 645.276 494.258 647.682 491.579 649.688C487.859 652.395 487.114 652.545 484.435 650.74C482.798 649.537 480.864 646.83 479.971 644.725Z" fill="#9AAEB2"/>
<path d="M719.584 951.973C718.393 951.973 717.352 951.221 717.352 950.469C717.352 949.717 717.947 948.965 718.84 948.965C719.733 948.965 720.626 949.717 721.072 950.469C721.519 951.221 723.602 951.973 725.686 951.973C729.109 951.973 729.258 952.273 727.174 954.229C725.984 955.432 723.9 956.484 722.709 956.484C721.37 956.484 719.882 955.582 719.286 954.68C718.493 953.376 718.691 953.126 719.882 953.928C720.923 954.529 721.816 954.229 721.816 953.477C721.816 952.725 720.775 951.973 719.584 951.973Z" fill="#163435"/>
<path d="M673.745 984.758C675.233 983.404 681.038 979.795 686.842 976.787C695.176 972.426 698.599 971.524 703.957 971.824C707.678 972.125 714.375 974.381 718.84 976.637C725.537 980.096 728.365 980.697 733.723 980.096C737.443 979.645 743.396 978.141 747.117 976.938C750.838 975.584 756.493 974.531 759.768 974.531C763.042 974.531 766.763 975.283 767.953 976.035C769.739 977.238 769.59 977.539 766.763 977.539C764.977 977.539 757.833 979.945 750.838 982.803C743.843 985.66 735.36 988.518 731.788 988.969C726.728 989.57 723.602 988.969 715.417 985.209C709.91 982.652 703.659 980.547 701.278 980.547C699.046 980.547 692.051 982.803 685.8 985.811C679.4 988.668 673.596 991.074 672.703 991.074C671.81 991.074 671.215 990.172 671.215 989.27C671.066 988.217 672.257 986.111 673.745 984.758Z" fill="#FAFBFB"/>
<path d="M745.182 1003.71C751.582 1001.6 759.47 999.346 762.744 998.594C766.018 997.992 770.186 997.391 772.12 997.24C774.502 997.09 775.246 997.842 774.948 999.797C774.799 1001.45 771.972 1003.26 767.209 1004.76C763.042 1006.11 753.666 1009.12 746.373 1011.38C735.806 1014.69 731.341 1015.29 725.239 1014.54C720.923 1014.08 714.226 1012.28 710.357 1010.47C704.552 1007.92 701.427 1007.47 693.986 1008.22C685.354 1009.12 684.609 1008.82 684.609 1006.11C684.609 1003.86 686.098 1002.65 690.265 1001.6C693.241 1000.85 697.26 1000.1 699.195 1000.1C700.98 1000.1 707.678 1001.75 714.077 1003.86C720.328 1005.96 727.323 1007.62 729.704 1007.62C731.937 1007.62 738.932 1005.81 745.182 1003.71Z" fill="#FAFBFB"/>
<path d="M716.756 713.754C718.096 710.896 720.179 707.889 721.668 706.986C723.007 706.084 727.174 705.332 731.193 705.332C736.699 705.332 738.932 706.084 741.908 709.092C744.438 711.648 745.629 714.506 745.629 718.115C745.629 720.973 745.034 724.732 744.141 726.387C743.396 728.041 740.569 730.447 738.187 731.65C735.806 732.854 732.383 733.906 730.746 733.906C729.109 733.906 725.686 732.854 723.305 731.65C720.775 730.447 717.798 727.139 716.607 724.131C714.673 719.469 714.673 718.416 716.756 713.754Z" fill="#6FA7A9"/>
<path d="M480.715 1010.32C481.905 1009.87 482.65 1008.82 482.203 1008.07C481.905 1007.32 483.543 1006.87 485.924 1007.02C488.454 1007.02 491.282 1007.32 492.323 1007.32C493.216 1007.47 494.407 1008.67 494.853 1009.87C495.3 1011.08 494.853 1013.63 493.812 1015.44C492.919 1017.39 491.133 1019.65 489.793 1020.7C488.454 1021.75 486.37 1022.66 485.18 1022.66C483.989 1022.66 481.161 1021.45 478.929 1019.65C475.952 1017.54 475.208 1016.04 476.25 1014.69C476.994 1013.78 477.441 1012.58 476.994 1012.13C476.548 1011.68 477.292 1010.32 478.78 1009.12C480.864 1007.32 481.012 1007.32 479.822 1009.12C478.78 1010.62 479.078 1011.08 480.715 1010.32Z" fill="#6FA7A9"/>
<path d="M676.424 980.697C679.698 978.742 684.758 975.734 687.586 974.23C690.414 972.877 693.837 971.674 695.027 971.523C696.218 971.523 692.795 973.93 687.288 976.787C681.782 979.645 675.977 983.104 674.191 984.607C672.554 986.111 671.066 988.217 671.215 989.27C671.215 990.172 671.81 991.074 672.703 991.074C673.596 991.074 676.275 990.021 678.656 988.818C681.038 987.615 683.419 986.713 683.716 987.014C684.163 987.164 681.484 988.969 677.763 991.074C671.959 994.232 670.768 994.533 669.727 992.578C669.131 991.375 668.982 988.969 669.578 987.465C670.024 985.811 673.15 982.803 676.424 980.697Z" fill="#C0D7D7"/>
<path d="M768.995 976.486C768.251 975.885 764.232 974.832 760.065 974.381L752.326 973.479L761.256 973.328C767.06 973.178 772.269 974.08 776.139 975.885C779.413 977.389 783.58 980.396 785.366 982.652C787.301 984.758 788.194 986.863 787.301 987.314C786.557 987.766 781.943 985.961 777.181 983.404C770.334 979.645 767.507 978.893 762.744 979.645C758.577 980.096 757.684 979.945 759.768 979.043C761.405 978.291 764.381 977.689 766.465 977.689C768.548 977.689 769.59 977.088 768.995 976.486Z" fill="#C0D7D7"/>
<path d="M761.256 998.443L767.953 996.488C771.674 995.285 775.246 994.232 775.841 994.232C776.436 994.082 776.883 995.586 776.883 997.391C776.883 999.697 776.536 1000.2 775.841 998.895C775.097 997.391 772.716 997.09 761.256 998.443Z" fill="#C0D7D7"/>
</svg>
