<svg width="1037" height="1037" viewBox="0 0 1037 1037" fill="none" xmlns="http://www.w3.org/2000/svg">
<rect width="1037" height="1037" fill="#F5F5F5"/>
<g clip-path="url(#clip0_0_1)">
<path d="M428.069 63.7344C434.469 57.418 443.994 48.5449 449.352 43.8828C454.709 39.3711 460.067 35.4609 461.258 35.4609C462.448 35.4609 469.89 40.7246 477.629 47.1914C485.368 53.6582 495.488 63.4336 500.102 68.6973C504.716 73.9609 512.008 83.1348 516.175 88.8496C520.491 94.7148 527.337 106.145 531.356 114.416C535.225 122.687 539.988 134.869 541.923 141.486C544.75 151.262 545.346 157.127 545.346 192.77L554.275 188.709C559.187 186.453 568.563 182.994 575.111 180.889C581.66 178.783 592.971 175.926 600.412 174.422C609.788 172.467 620.504 171.715 636.131 171.715C650.418 171.715 663.515 172.768 672.594 174.422C680.333 175.775 688.072 177.279 689.709 177.881C692.537 178.633 692.686 179.535 691.644 194.725C691.048 203.447 688.816 218.035 686.732 227.209C684.649 236.383 681.523 248.113 679.886 253.527C678.1 258.941 673.636 269.318 669.766 276.687C666.045 283.906 658.753 295.486 653.841 302.254C648.781 308.871 640.745 317.895 635.982 321.955C631.22 326.166 621.843 332.633 615.295 336.693C608.746 340.603 598.031 345.717 591.482 348.123C584.934 350.529 573.177 353.537 565.438 354.891C557.698 356.244 547.132 357.297 541.923 357.297C536.863 357.297 529.123 356.545 524.956 355.643C520.64 354.59 513.348 352.334 508.883 350.379C504.418 348.424 500.548 346.92 500.4 347.07C500.4 347.371 497.125 351.582 493.405 356.545C489.535 361.508 486.559 365.869 486.559 366.32C486.559 366.771 491.023 367.674 496.53 368.275C502.186 368.877 512.604 370.531 520.045 371.734C527.486 373.088 538.053 375.795 554.275 382.111L838.537 383.615L850.443 387.676C856.992 389.932 865.624 393.992 869.642 396.699C873.661 399.406 879.316 405.121 882.293 409.182C885.269 413.393 889.139 420.912 890.925 426.176C893.455 432.793 894.348 438.809 894.348 447.23C894.348 456.855 893.604 460.314 890.18 467.834C887.65 473.248 881.846 481.219 875.595 487.836C868.898 495.055 862.498 500.318 857.141 502.875C849.104 506.785 848.36 506.936 790.168 506.936V705.451C790.168 879.002 789.87 905.17 787.936 912.99C786.596 917.953 784.066 925.473 781.982 929.533C780.048 933.744 774.541 940.812 769.779 945.474C765.016 950.137 756.83 956.152 751.473 959.01C742.096 963.973 741.203 964.123 724.684 964.123C709.057 964.123 706.973 963.822 700.127 960.213C695.96 957.957 689.263 953.596 685.244 950.287C681.077 947.129 675.57 941.113 672.891 936.902C670.213 932.842 666.641 925.172 665.004 919.758C662.176 910.283 662.176 905.019 662.176 509.191H592.227L591.482 717.482L596.989 726.506C599.966 731.469 604.728 741.244 607.556 748.312C610.235 755.381 613.658 765.758 614.997 771.623C616.337 777.488 618.123 786.512 619.016 791.926C619.76 797.34 620.504 806.363 620.504 812.228C620.504 818.094 619.462 828.771 618.271 836.291C616.932 843.81 613.955 855.691 611.574 863.06C609.044 870.279 605.175 880.055 602.793 884.867C600.561 889.529 593.566 900.207 587.315 908.478C581.213 916.75 572.581 926.976 568.265 931.187C563.8 935.398 554.871 942.316 548.322 946.678C541.774 951.039 531.058 957.205 524.51 960.363C517.961 963.521 504.567 968.785 494.744 972.244C484.921 975.553 468.848 980.215 441.166 986.682L363.031 986.381C317.639 986.08 279.836 985.328 272.99 984.275C266.442 983.373 257.066 981.268 252.154 979.764C247.243 978.109 237.867 974.049 231.318 970.891C224.77 967.732 215.096 962.168 209.738 958.558C204.38 955.099 194.409 946.377 187.414 939.309C179.973 931.639 171.341 920.811 166.578 912.84C162.113 905.471 156.309 894.041 153.63 887.424C150.951 880.807 147.528 868.625 145.742 860.353C142.766 845.766 142.766 840.803 142.766 685.148C142.766 550.248 143.063 523.027 144.998 512.199C146.189 505.131 148.868 494.002 151.1 487.385C153.184 480.768 157.351 470.691 160.179 464.826C163.155 458.961 168.066 450.539 171.043 446.027C174.168 441.516 182.503 432.041 189.795 424.973C197.088 417.904 207.059 409.482 211.971 406.174C216.882 403.016 224.323 398.805 228.342 397C232.509 395.195 239.206 392.639 243.225 391.285C247.392 389.781 255.28 387.676 261.084 386.322C268.525 384.668 285.343 383.615 321.359 382.863C369.58 381.66 371.514 381.51 380.891 377.9C386.248 375.795 395.625 373.088 401.727 371.885C407.829 370.531 418.693 369.178 438.934 367.824L436.404 363.312C434.915 360.756 431.343 355.943 423.307 346.318L412.889 350.68C402.917 354.74 401.28 354.891 379.402 354.891C360.055 354.891 354.399 354.439 344.428 351.582C337.879 349.627 326.866 345.416 319.871 342.107C312.876 338.799 302.905 332.934 297.547 329.023C292.338 325.113 283.855 317.744 278.943 312.781C274.032 307.668 266.888 298.945 263.019 293.23C259.298 287.516 253.494 277.439 250.22 270.822C246.945 264.205 242.48 253.377 240.397 246.76C238.313 240.143 235.486 229.615 234.295 223.449C233.104 217.283 231.467 205.102 230.723 196.379C229.532 182.393 229.681 180.438 231.765 178.783C233.253 177.73 240.397 175.775 247.689 174.271C257.661 172.316 267.93 171.564 287.873 171.715C311.537 171.715 316.448 172.166 330.289 175.625C338.921 177.881 350.232 181.189 355.59 183.295C360.948 185.25 368.836 188.709 373.152 190.965C377.319 193.07 381.188 194.725 381.337 194.574C381.635 194.273 381.188 188.408 380.444 181.34C379.254 171.865 379.402 165.248 380.742 155.773C381.784 148.705 384.314 137.576 386.397 130.959C388.481 124.342 392.202 114.867 394.583 109.904C397.113 104.941 403.066 95.166 407.829 88.0977C412.591 81.0293 421.67 70.2012 428.069 63.7344Z" fill="#163435"/>
<path d="M435.213 87.3457L447.119 75.0137V74.8633C453.668 68.0957 459.174 62.5312 459.323 62.5312C459.621 62.5312 459.77 62.6816 459.77 62.832C459.77 63.1328 454.263 68.6973 435.213 87.3457Z" fill="#9AAEB2"/>
<path d="M453.37 181.49C453.072 185.25 452.775 182.844 452.775 176.227C452.775 169.609 453.072 166.602 453.37 169.459C453.668 172.316 453.668 177.73 453.37 181.49Z" fill="#9AAEB2"/>
<path d="M472.271 289.02C473.759 285.711 475.843 281.801 477.182 280.447V280.297C478.522 278.943 480.01 277.74 480.606 277.74C481.201 277.74 481.498 278.943 481.052 280.297C480.754 281.801 480.159 292.779 479.713 304.811C479.266 316.842 478.373 329.475 477.48 332.934C476.736 336.543 474.355 341.957 468.402 350.68L469.146 322.857C469.741 301.502 470.485 293.682 472.271 289.02Z" fill="#9AAEB2"/>
<path d="M335.498 406.775C332.224 407.076 327.461 407.076 325.08 406.775C322.699 406.475 325.229 406.174 331.033 406.174C336.838 406.174 338.772 406.475 335.498 406.775Z" fill="#9AAEB2"/>
<path d="M660.241 407.527C618.718 407.828 584.785 407.527 584.785 406.775C584.785 406.174 637.47 405.873 702.062 406.023C766.504 406.324 800.437 406.625 777.518 406.775C754.598 407.076 701.913 407.377 660.241 407.527Z" fill="#9AAEB2"/>
<path d="M593.268 481.67C592.971 484.979 592.673 483.023 592.673 477.158C592.673 471.293 592.971 468.736 593.268 471.143C593.566 473.549 593.566 478.361 593.268 481.67Z" fill="#9AAEB2"/>
<path d="M355.143 501.973C354.846 507.387 354.697 503.627 354.697 493.701C354.697 483.775 354.846 479.414 355.143 483.926C355.441 488.438 355.441 496.559 355.143 501.973Z" fill="#9AAEB2"/>
<path d="M636.131 484.979C632.857 485.279 628.094 485.279 625.713 484.979C623.332 484.678 625.862 484.377 631.666 484.377C637.47 484.377 639.405 484.678 636.131 484.979Z" fill="#9AAEB2"/>
<path d="M267.335 494.303C269.716 492.047 273.586 489.189 275.967 487.986C278.348 486.633 281.027 485.58 281.92 485.43C282.664 485.43 282.664 485.881 281.92 486.783C281.027 487.385 276.562 490.844 271.948 494.303C267.186 497.611 263.316 500.018 263.316 499.266C263.316 498.664 265.102 496.408 267.335 494.303Z" fill="#9AAEB2"/>
<path d="M468.699 512.049C464.979 512.35 458.281 512.35 453.816 512.049C449.352 511.748 452.328 511.598 460.514 511.598C468.699 511.598 472.42 511.748 468.699 512.049Z" fill="#9AAEB2"/>
<path d="M296.356 518.967C300.226 515.207 302.756 514.004 308.709 513.553C312.876 513.252 318.681 512.951 321.806 512.801C324.782 512.65 328.354 512.801 329.545 513.252C331.48 513.854 331.777 526.637 331.777 616.27C331.777 713.723 331.629 718.686 328.95 722.746C327.461 725.002 323.741 731.77 320.764 737.785C317.788 743.65 313.769 753.576 311.834 759.441C309.751 765.457 307.072 776.887 305.881 784.707C304.542 792.527 303.5 806.514 303.649 815.537C303.649 824.561 304.244 835.69 304.691 839.9C305.584 846.367 305.286 847.871 303.5 847.871C302.309 847.871 299.035 846.518 296.505 844.863C293.826 843.209 290.85 840.352 289.808 838.547C288.468 835.84 288.022 799.295 287.873 683.945C287.873 566.34 288.171 531.75 289.659 528.291C290.701 525.885 293.677 521.674 296.356 518.967Z" fill="#9AAEB2"/>
<path d="M261.382 569.648C261.233 577.469 260.935 571.754 260.935 556.865C260.935 541.977 261.233 535.51 261.382 542.578C261.679 549.647 261.679 561.828 261.382 569.648Z" fill="#9AAEB2"/>
<path d="M765.909 799.746C765.76 842.307 765.611 807.867 765.611 723.047C765.611 638.227 765.76 603.336 765.909 645.596C766.207 687.705 766.207 757.186 765.909 799.746Z" fill="#9AAEB2"/>
<path d="M164.643 708.008C164.495 717.482 164.197 710.414 164.197 692.217C164.197 674.02 164.495 666.199 164.643 674.922C164.941 683.645 164.941 698.533 164.643 708.008Z" fill="#9AAEB2"/>
<path d="M164.643 789.971C164.495 798.242 164.197 792.227 164.197 776.436C164.197 760.645 164.495 753.877 164.643 761.396C164.941 768.916 164.941 781.699 164.643 789.971Z" fill="#9AAEB2"/>
<path d="M353.804 894.943C354.846 895.695 355.59 894.943 355.59 893.439C355.59 891.936 355.739 891.033 356.036 891.484C356.334 891.936 357.971 895.094 359.757 898.703C361.543 902.162 362.882 905.02 362.734 905.02C362.436 905.02 359.906 902.613 357.078 899.605C354.25 896.598 352.762 894.492 353.804 894.943Z" fill="#9AAEB2"/>
<path d="M361.543 938.105C361.097 938.105 356.483 933.744 351.125 928.33C345.767 922.916 342.047 918.555 342.642 918.555C343.386 918.555 348 922.916 353.06 928.33C358.12 933.744 361.99 938.105 361.543 938.105Z" fill="#9AAEB2"/>
<path d="M357.078 964.725C351.72 965.025 343.386 965.025 338.475 964.725C333.563 964.424 337.879 964.273 348.148 964.273C358.418 964.273 362.436 964.424 357.078 964.725Z" fill="#9AAEB2"/>
<path fill-rule="evenodd" clip-rule="evenodd" d="M214.947 567.994C218.221 567.844 223.728 569.197 227.3 570.852C231.467 572.957 234.741 575.965 237.271 580.176C239.355 583.936 240.992 589.049 240.992 592.207C240.992 595.365 240.099 600.178 239.057 602.734C237.867 605.441 234.593 609.953 231.616 612.51C228.491 615.367 223.728 617.924 220.454 618.375C217.477 618.977 211.971 618.676 208.25 617.623C204.529 616.57 200.362 614.615 198.725 613.262C197.237 611.908 194.707 608.149 193.218 604.99C191.73 601.983 190.391 596.719 190.391 593.41C190.391 590.102 191.135 585.59 192.028 583.184C192.921 580.928 194.707 577.469 196.195 575.363C197.534 573.408 200.957 570.852 203.785 569.799C206.613 568.746 211.673 567.994 214.947 567.994ZM214.501 661.086C218.668 661.086 224.175 662.289 227.598 664.094C230.872 665.748 234.89 668.906 236.676 671.162C238.313 673.568 240.397 677.779 241.29 680.637C242.332 684.246 242.332 687.705 241.29 691.916C240.397 695.225 237.123 700.789 233.997 704.399C229.979 709.061 226.556 711.316 222.389 712.219C219.114 712.971 213.757 713.121 210.482 712.52C207.208 711.918 202.743 710.264 200.362 708.76C198.13 707.406 194.707 702.594 192.623 698.233C190.539 694.022 188.902 689.059 188.902 687.404C188.902 685.75 189.646 681.99 190.539 679.133C191.581 676.275 193.665 672.215 195.451 670.26C197.088 668.305 200.66 665.447 203.041 663.943C205.72 662.139 210.334 661.086 214.501 661.086ZM462.746 713.873C468.104 713.873 477.034 714.775 482.838 716.129C488.642 717.332 497.572 720.641 502.93 723.498C508.288 726.356 516.473 731.77 521.087 735.529C525.849 739.289 532.695 746.207 536.416 750.869C539.988 755.682 544.75 762.9 546.685 767.111C548.769 771.172 551.596 778.992 552.936 784.406C554.722 791.174 555.615 799.897 555.615 812.229C555.615 825.764 555.02 832.381 552.936 838.547C551.448 843.059 547.727 851.932 544.75 858.098C541.179 865.768 536.118 872.986 528.826 880.656C522.129 887.725 514.092 894.342 507.246 898.402C499.06 903.065 492.512 905.471 482.094 907.727C474.355 909.381 463.937 910.734 459.025 910.734C454.114 910.734 445.482 909.682 439.678 908.479C433.873 907.125 425.539 904.418 421.074 902.313C416.609 900.207 408.573 894.943 403.215 890.582C397.857 886.221 390.713 879.002 387.439 874.49C384.016 869.979 379.551 862.91 377.468 858.85C375.533 854.639 372.407 846.518 370.621 840.803C368.836 834.938 367.05 825.162 366.454 818.996C366.008 812.83 366.305 803.356 367.198 797.941C368.24 792.527 370.473 784.406 372.259 779.895C374.193 775.383 378.063 767.262 380.891 761.998C383.718 756.584 389.076 748.914 392.797 744.854C396.518 740.793 404.108 734.176 409.912 730.416C415.716 726.506 424.2 721.844 428.813 720.039C433.576 718.234 441.017 716.129 445.184 715.377C449.5 714.625 457.388 714.024 462.746 713.873ZM215.691 754.328C220.603 754.328 224.175 755.381 229.086 758.539C233.848 761.547 236.825 764.856 239.355 770.119C242.034 775.834 242.629 778.992 241.885 782.902C241.439 785.76 239.355 791.024 237.271 794.483C234.89 798.543 231.318 802.002 227.598 803.957C224.323 805.611 218.817 806.965 215.245 806.965C211.822 806.965 206.613 805.762 203.785 804.258C200.957 802.904 196.641 798.693 194.111 795.234C190.539 789.971 189.646 787.113 189.646 780.797C189.646 774.631 190.539 771.623 193.963 766.66C196.344 763.201 200.66 759.141 203.636 757.486C206.613 755.832 211.971 754.479 215.691 754.328ZM344.725 800.949C346.511 800.949 349.488 802.303 351.125 803.957C352.762 805.611 354.102 808.469 354.102 810.274C354.102 812.229 353.357 814.635 352.316 815.537C351.274 816.59 348.893 817.492 346.66 817.492C344.577 817.492 342.046 816.74 341.005 815.688C339.963 814.635 339.07 811.326 338.921 808.318C338.772 805.311 339.219 802.453 339.963 802.002C340.707 801.4 342.791 800.949 344.725 800.949ZM550.108 874.641C550.257 874.641 549.959 875.543 549.513 876.445C549.066 877.498 546.239 881.408 543.262 885.018C540.286 888.627 534.928 893.74 531.207 896.297C525.552 900.207 526.445 898.854 537.16 887.875C544.155 880.656 549.959 874.791 550.108 874.641Z" fill="#163435"/>
<path d="M425.241 101.633C429.855 95.4668 439.231 84.4883 446.077 77.2695V77.1191C453.072 69.9004 459.174 64.0352 459.621 64.0352C460.067 64.0352 464.086 67.6445 468.402 72.0059C472.718 76.2168 476.141 80.2773 476.141 80.8789C476.141 81.6309 473.908 81.4805 471.229 80.7285C468.699 79.9766 465.723 79.8262 464.979 80.4277C464.086 80.8789 462.3 83.7363 460.811 86.5938C459.472 89.4512 453.072 96.9707 446.821 103.137C437.594 112.461 434.469 116.822 429.26 127.951C425.837 135.32 421.521 147.201 419.735 154.27C417.502 163.293 416.609 171.564 416.609 182.393C416.609 194.574 417.502 200.891 420.479 211.719C422.711 219.389 425.986 228.863 427.92 232.773C429.855 236.834 431.195 240.293 430.748 240.744C430.302 241.195 427.623 238.639 424.646 235.029C421.818 231.57 417.056 224.652 414.377 219.689C411.698 214.727 407.829 205.553 406.043 199.387C403.215 190.363 402.62 184.648 402.62 171.564C402.62 158.33 403.364 152.314 406.638 141.486C408.721 134.117 411.847 124.492 413.633 120.432C415.419 116.221 420.628 107.799 425.241 101.633Z" fill="#FAFBFB"/>
<path d="M254.387 199.086C254.387 196.98 255.875 196.379 262.126 196.078C266.442 195.777 275.371 195.477 281.92 195.326C288.468 195.176 300.226 195.777 307.965 196.529C315.704 197.432 326.42 199.236 331.777 200.59C337.135 201.943 346.065 204.951 351.869 207.357C357.673 209.613 365.859 213.824 370.324 216.531C374.64 219.088 381.635 224.201 385.504 227.66C389.523 231.27 392.797 234.729 392.797 235.631C392.797 236.533 391.606 236.684 390.118 236.082C388.779 235.631 383.867 232.924 379.402 230.217C374.938 227.359 366.603 223.299 360.799 221.193C354.995 219.088 346.809 215.93 342.493 214.426C338.326 212.922 325.824 210.516 314.96 209.162C303.054 207.809 290.254 207.207 269.27 208.561V217.885C269.27 223.148 269.865 231.119 270.758 235.631C271.502 240.143 273.139 248.264 274.181 253.678C275.371 259.092 276.264 264.656 276.116 266.01C276.116 267.363 275.52 268.115 274.925 267.514C274.33 266.912 271.948 262.4 269.567 257.438C267.186 252.475 263.763 244.053 262.126 238.639C260.34 233.225 257.959 222.697 256.619 215.328C255.429 207.959 254.387 200.59 254.387 199.086Z" fill="#FAFBFB"/>
<path d="M589.25 199.988C594.608 198.785 606.663 197.281 616.039 196.529C625.415 195.928 639.852 195.777 648.037 196.229C656.223 196.529 663.962 197.432 665.152 198.184C666.938 199.086 666.343 199.688 662.92 201.041C660.39 201.943 655.776 203.297 652.502 204.049C649.228 204.65 640.149 205.703 632.41 206.305C624.671 206.906 610.83 208.26 601.9 209.463C588.506 211.268 582.85 212.771 571.391 218.035C563.652 221.645 553.085 227.51 548.173 231.27C543.113 234.879 535.97 241.947 532.398 246.91C528.677 251.873 523.319 260.295 520.343 265.709C517.515 271.123 512.604 283.605 509.627 293.531C506.65 303.457 503.079 312.932 501.888 314.586C499.804 317.293 499.655 316.09 500.4 301.803C500.995 289.922 502.186 282.854 505.311 273.229C507.99 265.408 512.752 255.783 517.515 248.414C521.98 241.797 527.933 233.826 530.909 230.668C534.035 227.51 540.434 222.246 545.346 219.088C550.257 215.779 559.931 210.666 566.926 207.809C573.921 204.801 583.892 201.342 589.25 199.988Z" fill="#FAFBFB"/>
<path d="M409.912 393.691C413.93 392.789 422.711 391.436 429.26 390.684C435.808 389.932 442.505 389.48 444.143 389.631C446.375 389.781 447.566 391.436 448.607 396.098C449.352 399.557 449.798 402.715 449.352 403.166C448.905 403.617 442.952 404.52 435.957 405.422C428.962 406.324 418.991 408.129 413.633 409.482C408.275 410.836 399.941 413.844 395.029 416.1C390.118 418.355 383.867 422.717 381.188 425.725C378.658 428.732 376.426 432.492 376.426 434.146C376.426 435.801 377.319 439.41 378.361 441.967C379.551 444.674 383.272 449.486 386.546 452.494C389.969 455.652 395.327 459.562 398.304 461.066C401.429 462.57 410.359 465.729 418.098 467.984C428.962 470.992 436.999 472.195 452.328 472.797C464.83 473.248 477.48 472.947 485.814 471.744C493.256 470.691 504.567 468.285 511.115 466.18C517.664 464.074 526.296 460.465 530.463 458.209C534.481 455.953 539.839 451.742 542.22 449.035C544.602 446.178 547.132 442.418 547.727 440.463C548.62 438.357 548.322 435.5 547.132 432.191C545.941 429.635 542.816 425.424 539.988 423.018C537.16 420.611 531.951 417.152 528.23 415.348C524.51 413.393 516.175 410.535 509.627 408.881C503.079 407.076 492.214 405.271 485.368 404.52C477.232 403.717 473.164 402.665 473.164 401.361C473.164 400.459 474.206 397.15 477.629 389.029L486.856 389.932C492.065 390.383 502.186 392.037 509.627 393.691C517.068 395.346 526.742 398.053 531.207 399.707C535.672 401.361 543.113 404.82 547.578 407.377C552.043 409.934 557.698 413.844 559.931 415.949C562.312 418.055 565.438 422.266 566.777 425.123C568.265 427.98 569.902 432.191 570.498 434.447C571.093 437.154 570.349 441.064 568.712 444.975C567.223 448.584 563.652 453.697 560.824 456.555C557.996 459.412 552.787 463.773 549.066 466.18C545.346 468.736 538.351 472.647 533.439 474.902C528.528 477.309 517.812 480.918 509.627 483.023C501.441 485.129 487.749 487.686 479.117 488.588C467.211 489.941 459.174 489.941 445.631 488.588C434.766 487.535 421.223 484.979 411.4 482.121C402.322 479.564 391.011 475.354 386.1 472.947C381.188 470.391 373.598 465.578 369.133 462.119C364.668 458.811 359.162 452.945 356.78 449.186C354.25 444.975 352.613 440.463 352.613 437.154C352.613 434.297 354.102 428.883 356.036 425.273C357.822 421.514 362.287 415.949 366.008 412.791C370.324 409.031 377.914 404.82 387.588 401.211C395.773 398.053 405.745 394.594 409.912 393.691Z" fill="#FAFBFB"/>
<path d="M256.619 410.836C261.53 409.332 270.907 407.678 277.455 406.926C284.004 406.324 300.375 406.174 313.918 406.625C327.461 407.076 338.623 407.527 338.772 407.527C338.921 407.678 336.986 412.189 334.307 417.604C329.843 427.078 329.694 427.98 329.991 444.674C330.14 454.148 329.991 464.826 329.545 468.285C328.95 474 328.354 474.752 325.08 474.752C322.996 474.752 314.662 476.105 306.477 477.76C298.291 479.414 287.724 482.271 282.962 484.076C278.348 485.881 272.097 489.49 269.27 491.896C266.442 494.453 260.191 500.469 255.429 505.131C250.815 509.943 246.201 513.854 245.457 513.854C244.564 513.854 242.183 516.109 236.23 523.629L237.271 578.371L233.551 574.912C231.467 572.957 228.193 570.551 226.109 569.498C224.026 568.445 218.966 567.693 214.947 567.693C210.78 567.693 205.422 568.746 203.041 569.949C200.66 571.152 197.534 573.408 196.195 574.912C194.855 576.566 192.623 580.025 191.284 582.582C189.944 585.289 188.902 590.102 188.902 593.109C188.902 596.418 190.688 601.982 193.07 606.344C195.748 611.307 198.874 614.766 202.297 616.42C205.422 618.074 210.929 619.127 215.691 619.127C221.347 619.127 225.514 618.225 229.086 615.969C231.914 614.164 234.741 611.908 235.337 611.006C235.932 610.104 236.676 622.887 237.271 669.658L231.318 665.447C227.895 662.891 222.537 660.785 218.668 660.334C214.352 659.732 209.887 660.184 206.018 661.838C202.743 663.041 198.279 666.049 196.046 668.305C193.814 670.561 190.986 675.223 189.646 678.531C188.009 682.291 187.563 686.502 188.009 689.811C188.605 692.668 190.986 698.232 193.367 702.143C196.641 707.557 199.469 709.963 204.083 711.768C208.101 713.271 213.608 714.023 218.817 713.572C224.175 713.271 228.342 712.219 229.979 710.564C231.616 709.061 233.253 707.857 233.848 707.857C234.593 707.857 235.039 719.738 235.039 734.176C235.039 748.613 234.741 760.494 234.295 760.494C233.848 760.494 231.318 759.141 228.639 757.486C225.216 755.381 221.347 754.479 214.947 754.479C207.655 754.479 204.976 755.23 200.362 758.689C196.939 761.096 193.07 765.908 190.986 770.27C189.051 774.33 187.414 779.143 187.414 780.797C187.414 782.451 189.051 787.113 190.837 791.324C192.772 795.385 196.344 800.348 198.725 802.303C201.106 804.258 205.72 806.514 208.994 807.416C213.608 808.77 216.584 808.77 221.645 807.266C225.365 806.213 230.277 803.656 232.658 801.4C235.535 798.693 236.329 798.342 235.039 800.348C233.402 802.904 233.7 804.408 236.676 810.574C238.611 814.484 241.141 817.643 242.034 817.643C243.076 817.643 244.266 818.695 244.713 819.898C245.159 821.102 247.838 822.906 250.666 823.658C253.494 824.41 255.875 825.914 255.875 826.666C255.875 827.418 256.768 828.17 257.661 828.17C258.703 828.17 261.679 832.832 264.358 838.397C266.888 843.961 271.948 851.781 275.52 855.842C278.943 859.902 285.194 865.166 289.361 867.422C294.868 870.73 298.738 871.783 312.43 871.783L316.448 880.355C318.68 885.168 323.741 893.74 327.61 899.605C331.629 905.471 340.707 916.9 348 925.172C357.673 936.301 360.948 940.963 360.204 942.918C359.311 945.625 356.929 945.775 259.596 944.572L244.713 939.609C236.527 937.053 229.532 935.248 229.086 935.549C228.639 936 229.979 937.053 232.062 937.805C235.337 939.008 235.188 939.158 230.128 938.857C227.151 938.857 224.621 937.955 224.621 937.203C224.621 936.451 224.175 936.15 223.579 936.752C222.835 937.354 218.519 934.947 213.608 931.488C208.845 928.029 200.362 919.457 194.707 912.389C189.051 905.32 182.056 894.943 179.229 889.078C176.401 883.213 172.234 871.783 165.834 848.473V683.043C165.834 528.742 165.983 516.861 168.513 505.582C170.001 498.965 174.466 486.783 178.484 478.512C183.396 468.586 189.498 459.262 196.344 450.99C201.999 444.223 210.929 435.5 215.989 431.74C221.198 427.98 230.425 422.266 236.527 419.107C242.629 415.949 251.708 412.189 256.619 410.836Z" fill="#FAFBFB"/>
<path d="M592.971 421.363C592.375 418.957 590.441 414.596 588.804 411.889L585.827 407.076H711.884C832.435 407.076 838.091 407.227 845.532 409.934C851.039 412.039 855.355 415.047 859.82 420.16C863.391 424.221 867.261 430.688 868.6 434.898C870.833 441.967 870.833 442.568 868.303 443.922C866.963 444.674 861.754 447.982 856.992 450.99C852.08 454.148 845.086 457.457 841.067 458.359C836.751 459.262 817.106 459.713 789.424 459.412C764.867 459.111 743.436 459.412 741.799 460.014C739.12 461.066 738.673 463.021 737.632 479.564C737.036 489.791 736.59 587.996 736.59 698.082C736.59 870.58 736.292 899.154 734.357 905.922C733.167 910.283 730.488 915.396 728.553 917.201C726.47 919.156 723.642 923.066 722.005 925.924C720.368 928.932 717.689 931.488 715.605 932.09C713.224 932.541 712.033 933.895 712.033 936.15C712.033 938.707 711.438 939.158 709.057 938.406C707.42 937.955 703.996 936 701.615 934.195C699.234 932.24 695.364 928.18 693.132 925.021C690.9 921.713 688.37 917.352 687.625 915.096C686.435 912.238 685.988 843.66 685.988 484.527L655.776 484.227C633.154 483.926 624.969 483.324 622.736 481.82C621.099 480.617 614.551 478.963 608.151 478.061C601.9 477.008 595.947 476.557 595.203 477.008C594.31 477.459 593.715 468.736 593.864 451.742C594.012 437.605 593.566 423.77 592.971 421.363Z" fill="#FAFBFB"/>
<path d="M355.59 691.164L355.887 584.988L356.185 478.812L362.287 484.076C365.561 486.934 371.961 491.145 376.426 493.551C380.891 495.807 390.118 499.566 396.815 501.973C403.661 504.379 415.419 507.387 422.86 508.891C432.385 510.695 444.143 511.447 460.514 511.447C475.992 511.447 488.94 510.545 497.721 508.891C505.013 507.537 512.306 506.033 513.645 505.582C516.027 504.83 516.324 506.785 517.217 526.937C517.812 539.119 517.812 555.512 517.217 563.332C516.771 571.303 516.324 595.516 516.324 617.172C516.324 651.311 516.027 656.574 514.092 656.574C512.901 656.574 506.65 655.221 500.251 653.566C494 651.912 482.391 649.957 474.652 649.205C466.169 648.453 455.602 648.453 448.607 649.205C442.059 649.957 431.343 652.062 424.795 653.717C418.246 655.521 408.573 658.68 403.215 660.936C397.857 663.191 387.141 669.057 379.402 674.02C371.663 678.832 363.031 684.848 355.59 691.164Z" fill="#FAFBFB"/>
<path d="M423.307 677.779C429.111 675.975 437.148 674.02 441.166 673.268C445.333 672.516 452.03 671.914 456.049 671.914C460.216 671.764 469.89 672.666 477.629 673.869C485.368 675.072 495.786 677.479 500.697 679.133C505.609 680.938 513.943 684.697 519.301 687.555C524.659 690.412 530.016 693.57 531.356 694.623C532.546 695.676 534.035 697.631 534.63 699.135C535.523 701.391 535.077 701.541 531.654 700.639C529.421 700.188 523.766 697.932 519.301 695.676C514.836 693.42 503.376 689.811 494 687.555C479.117 683.795 474.95 683.494 461.258 684.096C450.691 684.697 441.315 686.201 432.236 688.908C424.944 691.164 414.526 695.225 409.168 698.082C403.81 700.939 394.136 708.158 387.588 714.174C381.039 720.189 373.003 728.16 369.58 731.77C366.157 735.529 360.352 743.199 356.632 748.764C352.762 754.328 348.297 763.352 346.511 769.066C344.874 774.631 342.493 784.256 341.154 790.422C339.963 796.738 338.623 806.814 338.177 812.98C337.879 819.297 338.326 830.727 339.219 838.547C340.112 846.969 342.791 858.248 345.47 865.617C348 872.686 350.232 881.107 350.381 884.416C350.827 890.432 350.827 890.432 348.446 886.822C347.107 884.867 343.981 879.754 341.6 875.543C339.368 871.332 335.796 863.662 333.861 858.549C331.926 853.285 329.545 844.562 328.801 838.998C327.908 833.434 327.164 820.049 327.164 809.221C327.312 794.934 328.057 786.662 330.14 778.391C331.777 772.225 335.796 760.795 339.219 752.824C342.642 745.004 348.148 734.928 351.571 730.266C354.995 725.754 361.394 718.084 366.008 713.271C370.473 708.309 378.212 701.541 383.123 697.932C388.034 694.473 396.815 689.209 402.471 686.352C408.275 683.344 417.651 679.584 423.307 677.779Z" fill="#FAFBFB"/>
<path d="M555.02 790.422C554.127 785.91 553.234 780.947 552.787 779.443C552.341 777.789 552.638 776.887 553.531 777.488C554.424 777.939 556.359 780.947 557.847 784.105C559.336 787.113 561.866 795.084 563.205 801.701C564.991 809.822 565.586 816.74 564.991 822.756C564.545 827.719 562.759 836.592 561.27 842.307C559.782 848.172 556.21 857.496 553.382 863.211C550.555 868.926 545.346 877.197 541.625 881.559C537.904 885.92 530.612 892.988 525.254 897.049C519.896 901.109 509.627 907.275 502.186 910.584C493.107 914.645 484.773 917.051 476.141 918.254C467.062 919.457 460.811 919.607 453.816 918.404C448.459 917.652 440.124 915.396 435.213 913.742C430.302 911.938 424.944 909.531 423.307 908.479C420.479 906.373 420.479 906.223 424.051 906.223C426.134 906.223 431.492 907.275 435.957 908.479C440.571 909.832 450.542 910.734 459.025 910.734C467.211 910.734 478.224 909.832 483.582 908.779C488.94 907.576 498.911 903.666 505.757 900.057C515.431 894.943 520.789 890.883 528.826 882.16C536.118 874.34 541.327 866.82 545.643 858.098C549.066 851.029 552.936 841.254 554.275 836.291C555.466 831.328 556.508 820.951 556.508 812.98C556.508 805.16 555.913 795.084 555.02 790.422Z" fill="#FAFBFB"/>
<path d="M424.051 429.484C430.153 428.582 436.255 427.529 437.445 427.229C438.636 426.928 442.357 426.928 445.631 426.928C451.286 427.229 451.584 427.529 452.03 432.492C452.328 435.35 453.37 438.658 454.263 439.711C455.305 440.914 459.323 441.666 471.676 441.516V425.725L483.88 426.777C490.726 427.379 502.186 429.334 509.627 430.988C517.068 432.793 524.063 435.199 525.254 436.252C527.189 438.207 526.593 438.809 520.045 441.516C516.027 443.32 505.162 446.779 496.232 449.336C480.754 453.697 478.82 453.998 461.258 453.096C450.989 452.645 436.106 450.84 428.069 449.186C420.181 447.381 411.103 444.824 408.126 443.32C405.001 441.967 402.471 439.711 402.471 438.508C402.471 437.305 404.852 435.199 407.68 433.846C410.507 432.492 417.949 430.537 424.051 429.484Z" fill="#6FA7A9"/>
<path d="M476.141 81.0293C476.141 80.2773 474.652 78.1719 472.866 76.0664C471.081 73.9609 472.866 75.4648 476.885 79.375C481.052 83.2851 483.88 86.8945 483.136 87.3457C482.54 87.7969 479.266 86.2929 475.694 84.1875C472.271 82.082 470.932 80.7285 472.718 81.1797C474.652 81.6308 476.141 81.6308 476.141 81.0293Z" fill="#C0D7D7"/>
<path d="M296.803 207.959C293.529 208.26 288.766 208.26 286.385 207.959C284.004 207.658 286.534 207.357 292.338 207.357C298.142 207.357 300.077 207.658 296.803 207.959Z" fill="#C0D7D7"/>
<path d="M532.249 246.76C533.886 244.354 537.458 239.992 540.286 237.285C542.964 234.728 545.495 232.473 545.792 232.473C546.09 232.473 543.262 236.082 539.393 240.293C535.374 244.654 531.505 248.865 530.761 249.768C529.868 250.67 530.612 249.166 532.249 246.76Z" fill="#C0D7D7"/>
<path d="M396.518 242.248C394.88 241.797 391.457 239.691 389.076 237.736C384.909 234.127 384.909 233.977 388.332 235.33C390.416 236.082 392.648 236.533 393.392 236.383C394.136 236.383 395.773 237.736 397.113 239.691C399.345 242.85 399.345 243 396.518 242.248Z" fill="#C0D7D7"/>
<path d="M275.223 258.34C274.479 255.332 273.734 251.723 273.883 250.52C273.883 249.316 275.223 252.324 276.711 257.287C278.348 262.25 279.985 268.115 280.432 270.371C280.878 272.777 280.58 274.582 279.688 274.582C278.795 274.582 277.157 273.078 275.967 271.123C274.578 268.917 274.33 267.163 275.223 265.859C276.264 264.656 276.116 262.1 275.223 258.34Z" fill="#C0D7D7"/>
<path d="M857.438 450.689C862.647 447.381 867.559 443.771 868.6 442.568C869.94 440.764 870.535 441.816 871.13 448.133C871.875 453.998 871.428 457.156 869.196 461.818C867.559 465.127 863.838 470.09 861.01 472.646C858.034 475.354 852.825 479.113 849.253 480.918C843.3 484.227 841.514 484.377 766.653 484.377L765.909 493.4C765.463 498.363 765.165 594.914 764.867 913.742L761.444 920.811C759.658 924.57 755.491 930.135 752.217 932.842C748.943 935.699 742.841 938.857 738.822 940.211C734.655 941.414 727.958 942.316 723.939 942.166C719.772 942.166 715.456 941.715 714.266 941.113C712.926 940.512 711.884 938.406 712.033 936.301C712.033 933.744 713.075 932.391 715.605 931.789C717.689 931.338 720.368 928.781 722.005 925.773C723.642 922.916 726.47 919.006 728.553 917.051C730.488 915.246 733.167 910.133 734.357 905.922C736.292 899.004 736.59 869.527 736.739 693.42C736.888 580.928 737.483 482.422 738.078 474.602C738.525 466.781 739.12 461.217 739.269 462.119C739.418 463.172 740.906 464.074 742.543 464.074C744.18 464.074 745.817 463.473 746.264 462.57C746.71 461.668 745.52 460.916 743.585 460.916C741.65 460.766 742.841 460.164 746.264 459.412C749.538 458.66 770.672 458.51 793.145 458.961C820.529 459.562 836.453 459.262 841.067 458.209C845.086 457.307 852.378 453.848 857.438 450.689Z" fill="#C0D7D7"/>
<path d="M324.634 474.602C328.057 474.602 328.801 474 328.801 470.842C328.801 468.736 329.098 467.082 329.545 467.082C329.991 467.082 330.289 471.443 330.289 486.633L323.889 487.535C320.466 487.986 312.579 489.49 306.477 490.693C300.375 491.896 292.338 494.453 288.617 496.408C284.897 498.363 279.241 502.273 275.967 505.131C272.693 507.988 268.079 513.853 261.233 526.486L261.382 679.133C261.382 763.051 261.233 830.877 260.935 829.824C260.638 828.922 259.298 828.019 258.107 828.019C256.917 828.019 255.875 827.268 255.875 826.516C255.875 825.764 253.494 824.26 250.666 823.508C247.838 822.756 245.159 820.951 244.713 819.748C244.266 818.545 243.076 817.492 242.034 817.492C241.141 817.492 238.76 814.484 233.551 803.957L238.016 794.482C240.397 789.369 242.48 782.902 242.48 780.195C242.48 777.639 241.439 773.127 240.099 770.42C238.76 767.863 237.123 764.855 236.379 764.103C235.634 763.352 235.039 749.365 235.039 733.273C235.039 717.182 235.634 703.195 236.379 702.443C236.974 701.691 238.76 698.684 240.099 695.977C241.439 693.42 242.48 689.059 242.48 686.652C242.48 684.246 241.736 680.336 240.843 677.93C240.099 675.674 237.569 671.914 235.337 669.357C233.104 666.951 232.658 666.049 234.295 667.402C237.272 669.959 237.272 669.809 236.825 639.129C236.527 614.314 236.974 607.547 238.76 603.937C239.95 601.531 240.992 596.268 240.992 592.207C240.992 588.297 240.099 583.785 239.057 582.131C237.718 580.025 236.974 571.152 236.23 523.478L240.099 518.516C242.183 515.959 244.564 513.703 245.457 513.703C246.201 513.703 250.071 510.545 253.791 506.484C257.512 502.574 261.382 499.416 262.275 499.416C263.316 499.416 268.228 496.408 273.288 492.648C278.497 488.889 282.366 485.58 281.92 485.129C281.622 484.678 284.152 483.475 287.575 482.271C290.998 481.219 299.779 478.963 307.221 477.459C314.513 475.955 322.401 474.602 324.634 474.602Z" fill="#C0D7D7"/>
<path d="M593.417 481.971C593.268 479.865 593.864 477.609 594.608 477.008C595.352 476.406 597.882 476.256 600.412 476.707C602.793 477.158 608.151 477.91 612.318 478.512C616.337 479.113 621.099 480.467 622.736 481.52C625.564 483.475 625.564 483.475 621.992 484.227C619.909 484.678 612.765 485.279 605.919 485.43C593.715 485.881 593.715 485.881 593.417 481.971Z" fill="#C0D7D7"/>
<path d="M548.322 492.799C554.871 489.49 561.866 485.129 563.8 483.023C565.735 480.918 567.67 479.113 567.968 479.113C568.265 479.113 568.414 527.389 568.414 586.191C568.265 684.096 568.116 693.119 566.033 689.66C564.693 687.555 559.931 683.043 555.317 679.734C550.555 676.275 542.518 671.012 537.16 668.004C531.802 665.146 523.766 661.387 519.301 659.732C514.836 658.078 512.306 656.725 513.645 656.574C516.175 656.574 516.324 653.416 516.622 615.518C516.771 593.109 516.92 558.82 517.068 504.229L526.742 501.521C532.1 500.018 541.774 496.107 548.322 492.799Z" fill="#C0D7D7"/>
<path d="M685.542 800.197C685.393 858.098 685.244 811.025 685.244 695.676C685.244 580.326 685.393 532.953 685.542 590.402C685.839 647.852 685.839 742.297 685.542 800.197Z" fill="#C0D7D7"/>
<path d="M534.63 698.984C534.035 697.631 532.547 695.525 531.356 694.473C529.272 692.818 529.421 692.668 531.951 693.871C533.588 694.773 538.5 698.684 542.964 702.594C547.28 706.654 551.448 711.166 552.192 712.519C553.382 714.926 553.085 715.076 550.108 713.572C548.322 712.67 544.75 710.264 542.369 708.459C539.839 706.654 535.821 703.947 533.439 702.594C530.016 700.639 529.868 700.338 532.249 700.939C535.077 701.541 535.523 701.24 534.63 698.984Z" fill="#C0D7D7"/>
<path d="M351.125 889.68C350.976 888.477 350.827 885.77 350.976 883.664C350.976 881.559 351.274 880.205 351.72 880.656C352.018 881.107 353.357 885.168 354.697 889.68C357.078 897.951 357.078 897.951 354.25 894.943C352.613 893.289 351.274 890.883 351.125 889.68Z" fill="#C0D7D7"/>
<path d="M423.307 909.531C421.67 908.629 418.991 906.523 417.354 904.869C415.716 903.064 414.972 901.711 415.865 901.711C416.609 901.861 419.735 902.914 422.563 903.967C427.176 905.772 427.325 906.072 424.051 906.072C420.33 906.223 420.33 906.223 426.283 910.885L423.307 909.531Z" fill="#C0D7D7"/>
<path d="M224.175 940.662C219.561 937.353 215.394 934.045 215.096 932.992C214.65 931.939 216.138 932.691 218.37 934.496C220.603 936.301 222.984 937.203 223.579 936.602C224.175 936 224.621 936.301 224.621 937.053C224.621 937.805 227.151 938.707 230.128 938.707C235.188 939.008 235.337 938.857 232.063 937.654C229.979 936.902 228.639 935.85 229.086 935.398C229.532 935.098 236.527 936.902 259.596 944.422L309.751 944.873C356.632 945.324 360.055 945.174 360.501 942.617C360.799 941.264 359.311 938.105 357.227 935.699C354.647 932.792 356.582 933.844 363.031 938.857C368.389 942.918 376.723 948.783 381.635 951.791C386.546 954.648 392.946 958.107 400.982 961.566L391.309 962.469C385.951 962.92 363.18 963.672 340.707 964.123C316.299 964.574 294.422 964.273 286.385 963.371C278.943 962.469 267.335 960.062 260.34 957.957C253.345 955.701 244.266 952.242 240.248 950.287C236.081 948.182 228.937 943.82 224.175 940.662Z" fill="#C0D7D7"/>
<path d="M460.96 89.1504C460.811 88.5488 461.853 86.293 463.341 84.3379C464.83 82.2324 466.467 80.5781 466.913 80.5781C467.509 80.5781 470.932 82.5332 474.652 84.7891C478.373 87.1953 482.838 89.6016 484.773 90.0527C486.559 90.6543 489.386 92.6094 491.172 94.4141C492.809 96.3691 496.232 101.783 498.614 106.445C500.995 111.258 502.483 115.168 501.888 115.168C501.144 115.168 501.59 120.432 502.632 126.898C503.823 133.215 504.716 145.848 504.716 155.021C504.716 164.195 503.972 176.377 503.079 182.092C502.037 187.807 499.507 196.68 497.125 201.643C494.893 206.605 489.684 214.727 485.517 219.689C481.35 224.652 477.034 230.668 473.313 237.736L473.015 228.713C472.866 223.75 472.569 201.342 472.569 179.084C472.42 156.826 471.825 136.975 471.229 135.02C470.634 133.215 468.848 131.41 467.211 130.959C465.574 130.508 462.895 130.508 461.258 130.959C459.472 131.41 457.686 133.666 456.942 136.523C456.198 139.23 455.007 146.6 454.412 152.766C453.816 158.932 453.668 184.799 453.965 210.365C454.263 235.781 454.114 256.535 453.519 256.535C452.775 256.535 449.054 254.73 444.887 252.324C440.868 250.068 437.445 247.812 437.445 247.061C437.445 246.459 434.766 241.797 431.641 236.684C427.623 230.367 424.2 221.645 421.074 210.666C418.098 199.838 416.609 190.664 416.609 184.348C416.609 178.934 417.354 170.211 418.247 164.797C419.139 159.383 421.223 150.961 422.86 145.998C424.646 141.035 428.516 131.861 431.641 125.695C435.362 118.176 440.422 111.408 446.375 105.393C451.434 100.431 456.791 95.0177 458.429 93.3623L458.43 93.3613C460.067 91.707 461.109 89.752 460.96 89.1504Z" fill="#65D03B"/>
<path d="M616.783 208.41C627.499 207.508 638.215 206.605 640.596 206.305C643.126 206.004 647.293 205.703 649.972 205.553C652.948 205.553 654.734 206.154 654.734 207.207C654.734 208.26 653.097 214.275 651.163 220.441C649.228 226.607 645.507 236.984 642.977 243.301C640.447 249.768 636.28 258.641 633.601 262.852C631.071 267.213 626.904 273.529 624.373 276.687C621.843 279.996 614.7 286.764 608.598 291.576C602.496 296.539 591.631 303.457 584.488 307.066C575.855 311.428 565.884 314.887 555.466 317.293C546.536 319.248 535.523 321.654 530.909 322.557C526.147 323.459 522.277 324.812 522.277 325.715C522.277 326.617 521.384 327.219 520.491 327.219C519.202 327.319 519.45 326.316 521.236 324.211C522.724 322.406 531.356 314.736 540.583 307.066C549.662 299.396 562.312 289.32 568.414 284.658C574.516 279.996 585.529 270.672 592.822 263.754C605.472 251.873 606.068 250.971 605.77 245.256C605.77 241.947 605.323 238.939 604.877 238.488C604.579 238.037 601.156 239.391 597.436 241.496C593.715 243.602 580.172 253.076 567.521 262.551C554.722 272.025 535.821 286.764 525.552 295.035C515.134 303.457 506.502 310.225 506.204 310.074C506.055 310.074 507.543 303.457 509.776 295.637C511.859 287.816 515.58 277.289 517.961 272.326C520.343 267.363 525.403 258.641 529.421 252.775C533.439 246.91 540.583 238.939 545.495 235.029C550.257 230.969 559.633 224.953 566.182 221.795C572.73 218.486 582.404 214.576 587.762 212.922C593.12 211.418 606.216 209.312 616.783 208.41Z" fill="#65D03B"/>
<path d="M270.46 227.209C269.567 219.84 269.418 212.32 270.014 210.816C271.055 208.109 272.395 207.959 292.933 208.861C304.839 209.312 320.02 210.516 326.568 211.568C333.117 212.471 341.154 214.426 344.428 215.93C347.702 217.283 354.697 219.99 360.055 221.945C365.413 223.75 376.426 229.766 384.611 235.33C392.648 240.744 399.941 245.256 400.685 245.256C401.28 245.256 403.81 248.865 406.34 253.076L406.56 253.488C410.512 260.902 410.603 261.074 407.68 262.551C405.001 263.904 404.852 264.957 405.745 272.777C406.489 279.996 406.191 282.252 403.513 286.914C401.727 290.072 400.536 293.23 400.982 294.133C401.429 295.035 401.28 295.637 400.685 295.637C399.941 295.486 397.411 293.682 394.88 291.426C392.35 289.17 385.355 283.756 379.254 279.545C373.152 275.184 365.264 269.318 361.543 266.461C357.822 263.604 347.553 256.084 338.475 249.918C329.545 243.602 321.062 238.488 319.871 238.488C318.532 238.488 316.746 239.391 315.704 240.293C314.662 241.346 313.918 243.451 313.918 244.805C313.918 246.309 317.043 250.971 321.062 255.182C324.931 259.543 338.028 271.123 350.381 281.199C362.585 291.275 377.17 303.006 382.677 307.217C389.374 312.48 392.202 315.488 391.011 316.24C389.969 316.842 383.123 317.594 375.682 317.895C367.794 318.346 358.864 317.744 354.102 316.691C349.637 315.639 342.195 313.232 337.73 311.428C333.266 309.473 325.527 305.563 320.615 302.555C315.704 299.547 311.09 297.141 310.197 297.141C309.453 297.141 310.197 298.494 312.132 300.148C314.067 301.803 315.257 304.51 315.109 306.465C314.811 308.42 313.62 310.074 312.43 310.375C311.239 310.525 304.393 304.961 297.249 297.893C289.957 290.824 284.301 284.658 284.301 283.906C284.45 283.305 284.45 281.951 284.301 280.898C284.301 279.996 283.557 279.395 282.664 279.846C281.92 280.297 280.729 279.695 280.134 278.643C279.34 277.439 279.588 277.189 280.878 277.891C282.218 278.793 282.366 278.041 281.771 274.883C281.325 272.627 278.943 264.055 276.562 255.783C274.181 247.512 271.502 234.578 270.46 227.209Z" fill="#65D03B"/>
<path d="M421.818 693.57C427.623 691.314 436.255 688.457 441.166 687.404C446.97 686.051 456.644 685.449 468.699 685.75C481.945 686.201 490.726 687.254 499.209 689.51C505.757 691.314 517.068 695.676 524.51 699.285C531.951 702.744 541.476 708.309 545.792 711.617C550.108 714.775 554.127 717.031 554.722 716.43C555.317 715.828 554.722 714.174 553.531 712.971C552.341 711.617 551.745 710.564 552.489 710.715C553.085 710.715 558.145 717.031 563.949 724.701C573.921 738.086 574.218 738.838 573.623 745.756C573.177 749.967 573.474 752.824 574.367 752.824C575.26 752.824 575.409 754.027 574.814 755.531C573.921 757.486 574.07 757.787 575.855 756.584C577.493 755.381 577.79 755.682 577.046 758.088C576.6 759.742 577.493 768.615 578.981 777.639C580.469 786.662 581.66 796.738 581.809 799.896C581.809 805.311 581.809 805.461 577.79 803.807C575.409 803.055 571.688 802.453 569.307 802.754C565.289 803.205 564.842 802.754 561.866 793.43C560.08 788.016 557.103 780.646 555.02 777.037C552.936 773.428 550.852 770.57 550.257 770.57C549.513 770.721 547.578 768.164 545.792 764.855C543.857 761.547 539.541 755.08 536.118 750.568C532.547 746.057 525.849 739.289 521.236 735.529C516.473 731.77 507.543 726.055 501.441 722.896C494.447 719.287 486.112 716.43 479.117 715.227C472.42 714.023 463.193 713.723 456.049 714.174C449.5 714.775 439.827 716.43 434.469 718.084C429.111 719.738 420.479 723.648 415.121 726.807C409.912 729.965 401.131 736.883 395.773 742.297C390.118 747.861 383.867 756.283 380.891 761.848C378.063 767.262 374.193 775.383 372.259 779.895C370.473 784.406 368.24 792.527 367.198 797.941C366.305 803.355 366.008 812.83 366.454 818.996C367.05 825.162 368.836 835.088 370.621 840.803C372.407 846.668 375.533 854.789 377.468 858.85C379.551 863.061 384.016 869.979 387.439 874.49C390.713 879.002 397.262 885.619 401.727 889.379C406.191 893.139 411.996 898.854 414.377 902.162C416.907 905.471 421.521 909.531 424.795 911.186C428.069 912.84 435.808 915.396 441.91 916.9C448.31 918.555 458.132 919.758 464.979 919.758C471.527 919.758 480.903 918.705 485.814 917.352C490.726 915.998 500.697 911.938 508.139 908.178C515.58 904.568 522.873 900.207 524.51 898.853C526.147 897.35 528.379 896.297 529.421 896.598C530.314 896.898 534.779 893.59 539.095 889.379C543.56 885.018 548.025 879.754 549.066 877.648C551.001 874.039 550.852 874.039 548.322 876.145C545.643 878.25 545.643 878.25 548.025 874.34C549.364 871.934 550.852 870.129 551.299 870.129C551.745 870.129 551.596 871.031 551.001 871.934C550.207 873.237 550.456 873.488 551.745 872.686C552.638 872.084 553.234 871.182 552.787 870.58C552.49 869.828 554.127 864.715 556.508 858.85C558.889 852.984 561.568 845.014 562.461 840.803C563.503 836.742 564.545 832.23 564.991 831.027C565.438 829.824 565.884 823.357 565.735 804.709L566.926 814.484C567.372 819.898 567.968 822.906 568.116 821.252C568.265 819.146 570.2 817.643 573.921 816.289C577.046 815.236 580.469 814.033 581.511 813.582C582.702 813.131 583.297 815.086 583.297 820.199C583.297 824.109 581.064 835.389 578.386 845.314C575.707 855.24 571.539 867.121 569.158 871.633C566.777 876.145 561.717 883.965 557.847 888.928C554.127 893.891 545.941 902.613 539.988 908.328C532.1 915.697 525.254 920.359 515.58 925.021C508.139 928.631 499.06 932.691 495.191 933.895C491.172 935.248 483.136 937.053 477.331 937.955C471.229 939.008 459.323 939.309 450.096 938.857C441.166 938.406 430.45 937.053 426.283 935.699C422.265 934.346 410.507 928.781 400.238 923.066C389.969 917.352 381.486 913.291 381.337 914.043C381.039 914.645 382.528 916.9 384.611 919.006C386.695 921.111 388.034 923.518 387.588 924.27C387.141 925.021 384.016 923.668 380.593 921.262C377.021 918.705 370.473 913.141 365.859 908.779C361.394 904.568 359.013 902.012 360.65 903.215C363.627 905.471 363.627 905.32 361.245 901.711C360.055 899.605 355.292 888.477 350.679 876.896C345.321 863.361 341.898 851.781 340.856 844.562C339.963 838.396 339.07 827.268 338.772 819.748C338.475 812.229 338.475 807.867 338.772 809.973C339.219 812.078 340.261 814.635 341.154 815.688C342.195 816.74 344.577 817.643 346.66 817.492C348.893 817.492 351.274 816.59 352.316 815.688C353.357 814.635 354.102 812.229 354.102 810.424C354.102 808.469 352.613 805.461 350.827 803.807C348.595 801.701 346.065 800.799 343.535 801.1C340.409 801.551 339.814 801.25 340.707 799.445C341.302 798.242 342.195 793.881 342.642 789.67C343.088 785.609 345.172 776.736 347.255 770.119C349.637 762.449 353.655 754.328 358.269 747.561C362.436 741.846 372.407 730.266 380.742 721.994C389.076 713.723 399.345 704.85 403.661 702.293C407.829 699.887 416.163 695.826 421.818 693.57Z" fill="#65D03B"/>
<path d="M199.469 486.482C201.553 483.625 205.571 480.166 208.399 478.812C211.227 477.309 215.989 476.105 218.966 476.105C222.091 476.105 226.854 477.008 229.384 478.061C232.062 479.113 236.23 482.723 238.76 486.031C241.29 489.49 243.373 494.453 243.82 497.912C244.118 501.221 243.522 506.184 242.332 509.041C241.141 511.898 238.016 516.109 235.337 518.516C232.807 520.771 227.746 523.479 224.175 524.531C219.114 525.885 216.584 525.734 211.375 524.08C207.208 522.727 203.19 520.02 200.213 516.26C196.195 511.146 195.6 509.342 195.6 501.07C195.6 493.25 196.195 490.844 199.469 486.482Z" fill="#163435"/>
<path d="M441.91 549.496C443.994 547.992 448.31 545.736 451.584 544.533C454.858 543.33 459.918 542.428 462.746 542.277C465.574 542.277 470.485 543.029 473.462 543.781C476.587 544.684 481.945 547.842 485.368 550.85C488.642 554.008 492.661 559.271 494.149 562.58C495.637 565.889 496.977 571.303 496.977 574.611C496.977 577.92 496.232 583.184 495.488 586.191C494.595 589.35 491.172 595.064 487.6 598.824C484.177 602.584 478.671 606.945 475.396 608.6C471.973 610.254 466.318 611.457 462.002 611.457C457.835 611.457 451.882 610.104 448.607 608.75C445.333 607.246 440.868 603.938 438.487 601.531C436.255 599.125 432.98 593.41 431.343 588.898C429.26 583.334 428.367 578.07 428.813 572.957C429.111 567.242 430.45 563.332 433.725 558.67C436.106 555.211 439.827 551 441.91 549.496Z" fill="#163435"/>
<path d="M201.702 851.932C204.083 849.676 207.952 847.27 210.482 846.367C212.864 845.465 216.436 844.713 218.221 844.713C220.156 844.562 224.175 845.615 227.151 846.969C230.277 848.172 234.444 850.729 236.23 852.533C238.164 854.338 240.695 857.646 241.885 860.053C243.076 862.309 243.969 866.52 243.969 869.377C243.969 872.234 243.076 876.896 241.885 879.603C240.843 882.16 238.016 886.221 235.634 888.477C233.253 890.732 229.532 893.289 227.151 894.041C224.919 894.943 220.305 895.695 216.733 895.695C212.566 895.695 208.696 894.643 205.273 892.236C202.446 890.432 198.576 886.07 196.79 882.912C194.855 879.604 193.367 874.34 193.367 871.182C193.367 868.174 194.26 863.361 195.451 860.654C196.493 858.098 199.32 854.037 201.702 851.932Z" fill="#163435"/>
<path d="M277.009 911.486C278.05 909.381 280.283 907.125 281.92 906.373C283.557 905.621 287.129 904.869 289.659 904.869C293.082 904.719 295.91 906.072 298.886 908.93C301.268 911.186 303.649 914.645 304.244 916.75C304.839 918.855 304.839 922.314 304.393 924.721C303.798 927.127 301.565 929.984 298.589 931.789C296.059 933.443 291.296 934.797 288.171 934.797C283.855 934.797 281.92 933.895 278.943 930.285C276.562 927.428 275.223 923.969 275.223 920.51C275.223 917.652 276.116 913.592 277.009 911.486Z" fill="#163435"/>
<path d="M385.355 546.488C385.355 544.984 386.695 542.428 388.332 540.773C389.969 539.119 391.755 537.766 392.35 537.766C393.095 537.766 394.732 538.969 396.22 540.473C397.708 541.826 398.899 544.533 398.75 546.338C398.75 548.293 397.708 550.85 396.369 552.053C395.178 553.256 393.243 554.309 392.35 554.309C391.309 554.309 389.374 553.105 387.886 551.602C386.397 550.248 385.207 547.842 385.355 546.488Z" fill="#6FA7A9"/>
<path d="M205.273 594.914C205.422 594.012 207.059 591.605 208.994 589.65C210.929 587.545 213.905 585.891 215.691 585.891C217.329 585.891 219.71 587.395 220.9 589.199C222.091 591.154 223.133 594.012 223.133 595.666C223.133 597.32 222.389 599.576 221.347 600.479C220.305 601.531 217.626 602.434 215.394 602.434C213.161 602.434 209.887 601.08 208.25 599.426C206.613 597.771 205.273 595.666 205.273 594.914Z" fill="#6FA7A9"/>
<path d="M205.125 689.059C204.976 684.998 205.869 683.193 209.143 680.787C211.375 678.982 214.054 677.629 215.245 677.629C216.287 677.629 218.817 679.283 220.9 681.389C222.984 683.494 224.621 686.652 224.621 688.457C224.621 690.412 223.43 693.119 221.942 694.623C220.603 696.127 217.626 697.33 215.394 697.18C213.013 697.18 209.887 696.428 208.25 695.676C206.166 694.623 205.273 692.518 205.125 689.059Z" fill="#6FA7A9"/>
<path d="M432.385 741.094C433.873 739.74 438.487 737.635 442.654 736.732C446.822 735.68 457.239 735.078 466.467 735.229C481.647 735.529 483.582 735.98 493.256 740.643C500.251 744.102 506.799 748.914 513.496 755.682C519.747 762.148 524.807 769.066 527.784 775.383C530.314 780.797 533.291 789.219 534.184 794.182C535.225 799.145 535.672 809.672 535.374 817.492C534.928 831.027 534.63 832.531 527.486 847.42C521.533 859.902 518.259 864.715 511.115 871.482C506.204 876.145 499.209 881.408 495.488 883.062C491.768 884.867 483.88 887.424 477.927 888.777C472.122 890.131 464.086 891.184 460.067 891.184C456.198 891.184 449.054 890.131 444.143 888.777C439.231 887.574 431.492 884.717 427.027 882.461C422.414 880.055 414.377 873.889 408.275 867.873C399.494 859.15 396.964 855.24 392.797 845.314C388.927 835.689 387.737 830.576 387.141 819.748C386.695 810.123 387.141 803.506 388.927 796.438C390.267 791.023 393.243 782.602 395.476 777.639C397.857 772.676 401.875 765.457 404.405 761.396C407.084 757.486 412.74 751.922 416.907 749.064C421.223 746.207 425.986 743.801 427.325 743.801C428.664 743.801 431.046 742.598 432.385 741.094Z" fill="#6FA7A9"/>
<path d="M205.125 783.203C204.976 780.947 206.018 777.488 207.506 775.684C208.994 773.578 211.524 772.375 214.203 772.375C217.329 772.375 219.561 773.578 221.645 776.436C223.43 778.842 224.77 782.15 224.621 783.955C224.621 785.91 223.133 788.467 221.198 789.67C219.412 790.873 216.138 791.926 213.757 791.926C211.524 791.926 208.696 790.873 207.506 789.67C206.315 788.467 205.273 785.609 205.125 783.203Z" fill="#6FA7A9"/>
<path d="M211.971 502.725C210.78 499.566 211.078 498.213 213.31 495.807C214.798 494.002 217.924 492.648 220.007 492.648C222.091 492.648 224.77 493.4 225.812 494.453C226.853 495.506 227.598 498.213 227.598 500.469C227.598 503.276 226.258 505.682 223.579 507.688C219.859 510.395 219.114 510.545 216.435 508.74C214.798 507.537 212.864 504.83 211.971 502.725Z" fill="#9AAEB2"/>
<path d="M451.584 809.973C450.393 809.973 449.352 809.221 449.352 808.469C449.352 807.717 449.947 806.965 450.84 806.965C451.733 806.965 452.626 807.717 453.072 808.469C453.519 809.221 455.602 809.973 457.686 809.973C461.109 809.973 461.258 810.273 459.174 812.229C457.984 813.432 455.9 814.484 454.709 814.484C453.37 814.484 451.882 813.582 451.286 812.68C450.493 811.376 450.691 811.126 451.882 811.928C452.923 812.529 453.816 812.229 453.816 811.477C453.816 810.725 452.775 809.973 451.584 809.973Z" fill="#163435"/>
<path d="M405.745 842.758C407.233 841.404 413.038 837.795 418.842 834.787C427.176 830.426 430.599 829.524 435.957 829.824C439.678 830.125 446.375 832.381 450.84 834.637C457.537 838.096 460.365 838.697 465.723 838.096C469.443 837.645 475.396 836.141 479.117 834.938C482.838 833.584 488.493 832.531 491.768 832.531C495.042 832.531 498.763 833.283 499.953 834.035C501.739 835.238 501.59 835.539 498.763 835.539C496.977 835.539 489.833 837.945 482.838 840.803C475.843 843.66 467.36 846.518 463.788 846.969C458.728 847.57 455.602 846.969 447.417 843.209C441.91 840.652 435.659 838.547 433.278 838.547C431.046 838.547 424.051 840.803 417.8 843.811C411.4 846.668 405.596 849.074 404.703 849.074C403.81 849.074 403.215 848.172 403.215 847.27C403.066 846.217 404.257 844.111 405.745 842.758Z" fill="#FAFBFB"/>
<path d="M477.182 861.707C483.582 859.602 491.47 857.346 494.744 856.594C498.018 855.992 502.186 855.391 504.12 855.24C506.502 855.09 507.246 855.842 506.948 857.797C506.799 859.451 503.972 861.256 499.209 862.76C495.042 864.113 485.666 867.121 478.373 869.377C467.806 872.686 463.341 873.287 457.239 872.535C452.923 872.084 446.226 870.279 442.357 868.475C436.552 865.918 433.427 865.467 425.986 866.219C417.354 867.121 416.609 866.82 416.609 864.113C416.609 861.857 418.098 860.654 422.265 859.602C425.241 858.85 429.26 858.098 431.195 858.098C432.98 858.098 439.678 859.752 446.077 861.857C452.328 863.963 459.323 865.617 461.704 865.617C463.937 865.617 470.932 863.813 477.182 861.707Z" fill="#FAFBFB"/>
<path d="M448.756 571.754C450.096 568.896 452.179 565.889 453.668 564.986C455.007 564.084 459.174 563.332 463.193 563.332C468.699 563.332 470.932 564.084 473.908 567.092C476.438 569.648 477.629 572.506 477.629 576.115C477.629 578.973 477.034 582.732 476.141 584.387C475.396 586.041 472.569 588.447 470.187 589.65C467.806 590.854 464.383 591.906 462.746 591.906C461.109 591.906 457.686 590.854 455.305 589.65C452.775 588.447 449.798 585.139 448.607 582.131C446.673 577.469 446.673 576.416 448.756 571.754Z" fill="#6FA7A9"/>
<path d="M212.715 868.324C213.905 867.873 214.65 866.82 214.203 866.068C213.905 865.316 215.543 864.865 217.924 865.016C220.454 865.016 223.282 865.316 224.323 865.316C225.216 865.467 226.407 866.67 226.853 867.873C227.3 869.076 226.853 871.633 225.812 873.438C224.919 875.393 223.133 877.648 221.793 878.701C220.454 879.754 218.37 880.656 217.18 880.656C215.989 880.656 213.161 879.453 210.929 877.648C207.952 875.543 207.208 874.039 208.25 872.686C208.994 871.783 209.441 870.58 208.994 870.129C208.548 869.678 209.292 868.324 210.78 867.121C212.864 865.316 213.012 865.316 211.822 867.121C210.78 868.625 211.078 869.076 212.715 868.324Z" fill="#6FA7A9"/>
<path d="M408.424 838.697C411.698 836.742 416.758 833.734 419.586 832.23C422.414 830.877 425.837 829.674 427.027 829.523C428.218 829.523 424.795 831.93 419.288 834.787C413.782 837.645 407.977 841.104 406.191 842.607C404.554 844.111 403.066 846.217 403.215 847.27C403.215 848.172 403.81 849.074 404.703 849.074C405.596 849.074 408.275 848.021 410.656 846.818C413.038 845.615 415.419 844.713 415.716 845.014C416.163 845.164 413.484 846.969 409.763 849.074C403.959 852.232 402.768 852.533 401.727 850.578C401.131 849.375 400.982 846.969 401.578 845.465C402.024 843.811 405.15 840.803 408.424 838.697Z" fill="#C0D7D7"/>
<path d="M500.995 834.486C500.251 833.885 496.232 832.832 492.065 832.381L484.326 831.479L493.256 831.328C499.06 831.178 504.269 832.08 508.139 833.885C511.413 835.389 515.58 838.396 517.366 840.652C519.301 842.758 520.194 844.863 519.301 845.314C518.557 845.766 513.943 843.961 509.181 841.404C502.334 837.645 499.507 836.893 494.744 837.645C490.577 838.096 489.684 837.945 491.768 837.043C493.405 836.291 496.381 835.689 498.465 835.689C500.548 835.689 501.59 835.088 500.995 834.486Z" fill="#C0D7D7"/>
<path d="M493.256 856.443L499.953 854.488C503.674 853.285 507.246 852.232 507.841 852.232C508.436 852.082 508.883 853.586 508.883 855.391C508.883 857.697 508.536 858.198 507.841 856.895C507.097 855.391 504.716 855.09 493.256 856.443Z" fill="#C0D7D7"/>
</g>
<defs>
<clipPath id="clip0_0_1">
<rect width="1037" height="1037" fill="white"/>
</clipPath>
</defs>
</svg>
