<svg width="16" height="16" viewBox="0 0 16 16" fill="none" xmlns="http://www.w3.org/2000/svg">
<path fill-rule="evenodd" clip-rule="evenodd" d="M8.66284 1.38932L14.7563 12.8991C15.0207 13.3986 14.6586 14 14.0934 14H1.90658C1.3414 14 0.979299 13.3986 1.24374 12.8991L7.33716 1.38932C7.61886 0.857209 8.38113 0.857204 8.66284 1.38932ZM6.45337 0.921429C7.11069 -0.320166 8.88931 -0.320162 9.54663 0.921433L15.64 12.4312C16.2571 13.5967 15.4122 15 14.0934 15H1.90658C0.587825 15 -0.257077 13.5967 0.359952 12.4312L6.45337 0.921429ZM8 4.50002C8.27614 4.50002 8.5 4.72388 8.5 5.00002V8.50002C8.5 8.77617 8.27614 9.00002 8 9.00002C7.72386 9.00002 7.5 8.77617 7.5 8.50002L7.5 5.00002C7.5 4.72388 7.72386 4.50002 8 4.50002ZM8 10C8.27614 10 8.5 10.2239 8.5 10.5V11C8.5 11.2762 8.27614 11.5 8 11.5C7.72386 11.5 7.5 11.2762 7.5 11V10.5C7.5 10.2239 7.72386 10 8 10Z" fill="#0E1011"/>
</svg>
