<svg width="16" height="16" viewBox="0 0 16 16" fill="none" xmlns="http://www.w3.org/2000/svg">
<path fill-rule="evenodd" clip-rule="evenodd" d="M14.2943 8.00008C14.2943 4.52097 11.4739 1.7006 7.99479 1.7006C4.51569 1.7006 1.69531 4.52097 1.69531 8.00008C1.69531 11.4792 4.51569 14.2996 7.99479 14.2996C11.4739 14.2996 14.2943 11.4792 14.2943 8.00008ZM15.2943 8.00008C15.2943 3.96869 12.0262 0.700599 7.99479 0.700599C3.9634 0.700599 0.695312 3.96869 0.695312 8.00008C0.695312 12.0315 3.9634 15.2996 7.99479 15.2996C12.0262 15.2996 15.2943 12.0315 15.2943 8.00008ZM5.25 8C5.25 8.69036 4.69036 9.25 4 9.25C3.30964 9.25 2.75 8.69036 2.75 8C2.75 7.30964 3.30964 6.75 4 6.75C4.69036 6.75 5.25 7.30964 5.25 8ZM8 9.25C8.69036 9.25 9.25 8.69036 9.25 8C9.25 7.30964 8.69036 6.75 8 6.75C7.30964 6.75 6.75 7.30964 6.75 8C6.75 8.69036 7.30964 9.25 8 9.25ZM13.25 8C13.25 8.69036 12.6904 9.25 12 9.25C11.3096 9.25 10.75 8.69036 10.75 8C10.75 7.30964 11.3096 6.75 12 6.75C12.6904 6.75 13.25 7.30964 13.25 8Z" fill="#0E1011"/>
</svg>
