<svg width="16" height="16" viewBox="0 0 16 16" fill="none" xmlns="http://www.w3.org/2000/svg">
<path fill-rule="evenodd" clip-rule="evenodd" d="M14.2943 8.00004C14.2943 11.4791 11.4739 14.2995 7.99479 14.2995C4.51569 14.2995 1.69531 11.4791 1.69531 8.00004C1.69531 4.52094 4.51569 1.70056 7.99479 1.70056C11.4739 1.70056 14.2943 4.52094 14.2943 8.00004ZM15.2943 8.00004C15.2943 12.0314 12.0262 15.2995 7.99479 15.2995C3.9634 15.2995 0.695312 12.0314 0.695312 8.00004C0.695312 3.96865 3.9634 0.700562 7.99479 0.700562C12.0262 0.700562 15.2943 3.96865 15.2943 8.00004ZM5.14645 5.14657C5.34171 4.95131 5.65829 4.95131 5.85355 5.14657L8 7.29302L10.1464 5.14657C10.3417 4.95131 10.6583 4.95131 10.8536 5.14657C11.0488 5.34183 11.0488 5.65841 10.8536 5.85368L8.70711 8.00012L10.8536 10.1466C11.0488 10.3418 11.0488 10.6584 10.8536 10.8537C10.6583 11.0489 10.3417 11.0489 10.1464 10.8537L8 8.70723L5.85355 10.8537C5.65829 11.0489 5.34171 11.0489 5.14645 10.8537C4.95118 10.6584 4.95118 10.3418 5.14645 10.1466L7.29289 8.00012L5.14645 5.85368C4.95118 5.65841 4.95118 5.34183 5.14645 5.14657Z" fill="#0E1011"/>
</svg>
