<svg width="16" height="16" viewBox="0 0 16 16" fill="none" xmlns="http://www.w3.org/2000/svg">
<path fill-rule="evenodd" clip-rule="evenodd" d="M5.41117 1.74988L10.5888 1.74988L14.25 5.41104V10.5887L10.5888 14.2499L5.41117 14.2499L1.75 10.5887L1.75 5.41104L5.41117 1.74988ZM11.003 0.749878L15.25 4.99683V11.0029L11.003 15.2499L4.99695 15.2499L0.75 11.0029V4.99683L4.99695 0.749878H11.003ZM5.14645 5.14642C5.34171 4.95115 5.65829 4.95115 5.85355 5.14642L8 7.29286L10.1464 5.14642C10.3417 4.95115 10.6583 4.95115 10.8536 5.14642C11.0488 5.34168 11.0488 5.65826 10.8536 5.85352L8.70711 7.99997L10.8536 10.1464C11.0488 10.3417 11.0488 10.6583 10.8536 10.8535C10.6583 11.0488 10.3417 11.0488 10.1464 10.8535L8 8.70708L5.85355 10.8535C5.65829 11.0488 5.34171 11.0488 5.14645 10.8535C4.95118 10.6583 4.95118 10.3417 5.14645 10.1464L7.29289 7.99997L5.14645 5.85352C4.95118 5.65826 4.95118 5.34168 5.14645 5.14642Z" fill="#0E1011"/>
</svg>
